<svg width="45" height="45" viewBox="0 0 45 45" fill="none" xmlns="http://www.w3.org/2000/svg">
<mask id="path-1-inside-1_21_2175">
<path d="M14.9714 18.2072C15.0848 18.5483 15.0582 18.9204 14.8975 19.2419C14.7367 19.5634 14.455 19.8079 14.1141 19.9218C13.6976 20.0535 13.3112 20.2664 12.9774 20.5481C12.6435 20.8298 12.3687 21.1748 12.1688 21.5632C11.6642 22.51 11.3224 24.0673 11.6398 26.6094C11.684 26.9667 11.5846 27.3269 11.3632 27.6108C11.1419 27.8947 10.8169 28.079 10.4596 28.1233C10.1024 28.1675 9.74219 28.0681 9.45828 27.8467C9.17438 27.6254 8.99002 27.3004 8.94577 26.9431C8.58765 24.0592 8.92135 21.8861 9.77595 20.2881C10.6441 18.6603 11.9654 17.7785 13.254 17.3499C13.4231 17.2933 13.6016 17.2706 13.7795 17.2831C13.9573 17.2956 14.1309 17.343 14.2904 17.4226C14.4499 17.5022 14.5921 17.6125 14.709 17.7471C14.8258 17.8818 14.915 18.0381 14.9714 18.2072ZM28.3574 3.64371C28.531 3.5911 28.6923 3.50421 28.8317 3.38819C28.9711 3.27216 29.0858 3.12935 29.1691 2.9682C29.2524 2.80706 29.3025 2.63085 29.3164 2.45001C29.3304 2.26917 29.308 2.08736 29.2504 1.91534C29.1929 1.74332 29.1015 1.58458 28.9815 1.44851C28.8616 1.31245 28.7156 1.20182 28.5521 1.12317C28.3887 1.04452 28.2111 0.99945 28.03 0.990621C27.8488 0.981793 27.6677 1.00939 27.4974 1.07177C24.9553 1.91823 23.3682 4.00726 22.4349 6.2455C22.3096 6.54805 22.1947 6.8548 22.0903 7.16521C21.5821 6.20247 20.9318 5.32172 20.1614 4.55258C19.1186 3.50754 17.8731 2.68685 16.5014 2.14097C15.1297 1.59509 13.6608 1.33557 12.1851 1.37834C10.6116 1.42175 9.35543 2.68059 9.31203 4.25143C9.2689 5.74676 9.53617 7.23479 10.097 8.62164C10.6578 10.0085 11.5 11.2641 12.5704 12.3091C10.2914 12.8028 8.23194 14.017 6.69672 15.7721C5.16149 17.5272 4.23209 19.7299 4.04606 22.0543L4.02978 22.255C3.67161 26.7239 4.62383 31.2003 6.76993 35.1364L7.74661 36.9216C7.77374 36.9677 7.80087 37.0138 7.83343 37.0573L10.5464 40.8609C11.1613 41.722 11.9565 42.4389 12.8765 42.9616C13.7965 43.4842 14.8194 43.8002 15.8739 43.8875C16.9284 43.9747 17.9893 43.8312 18.9827 43.4669C19.9762 43.1026 20.8783 42.5262 21.6264 41.7779C21.7413 41.663 21.8777 41.5718 22.0278 41.5096C22.178 41.4474 22.3389 41.4154 22.5014 41.4154C22.6639 41.4154 22.8248 41.4474 22.9749 41.5096C23.125 41.5718 23.2614 41.663 23.3763 41.7779C24.1244 42.5262 25.0266 43.1026 26.02 43.4669C27.0134 43.8312 28.0743 43.9747 29.1288 43.8875C30.1834 43.8002 31.2062 43.4842 32.1262 42.9616C33.0463 42.4389 33.8414 41.722 34.4563 40.8609L37.1693 37.06C37.2009 37.0156 37.2299 36.9694 37.2561 36.9216L38.2301 35.1364C40.3762 31.2003 41.3284 26.7239 40.9702 22.255L40.9567 22.0543C40.8366 20.5561 40.4067 19.0992 39.694 17.7759C38.9814 16.4526 38.0017 15.2917 36.817 14.3669C35.6322 13.4421 34.2683 12.7734 32.8116 12.4033C31.3549 12.0332 29.8372 11.9697 28.3547 12.2169L23.8592 12.9656C23.8864 11.1181 24.2119 9.03991 24.9417 7.2873C25.7014 5.45601 26.83 4.15376 28.3547 3.64371M19.0246 12.613L18.6068 12.5424C17.0137 12.2351 15.5496 11.4562 14.4044 10.3069C13.6205 9.52492 13.005 8.59075 12.5958 7.56193C12.1866 6.53311 11.9924 5.43141 12.025 4.32468C12.0257 4.2623 12.0508 4.20267 12.095 4.15856C12.1391 4.11445 12.1987 4.08935 12.2611 4.08865C13.368 4.05634 14.4698 4.25102 15.4987 4.66068C16.5275 5.07035 17.4615 5.68633 18.2433 6.47068C19.8901 8.11748 20.685 10.2906 20.6226 12.4529C20.6219 12.5153 20.5968 12.5749 20.5527 12.619C20.5086 12.6631 20.4489 12.6882 20.3866 12.6889C19.9313 12.7015 19.4757 12.6761 19.0246 12.613ZM18.1348 15.2147L18.6041 15.2934L20.7176 15.6461C21.8986 15.8429 23.1041 15.8429 24.2852 15.6461L28.7996 14.8919C29.9117 14.7064 31.0501 14.754 32.1428 15.0316C33.2355 15.3092 34.2586 15.8108 35.1473 16.5046C36.0359 17.1984 36.7707 18.0692 37.3052 19.0619C37.8396 20.0546 38.1619 21.1475 38.2518 22.2713L38.2681 22.4721C38.5837 26.4159 37.7428 30.3663 35.8481 33.8396L34.9148 35.5488L32.2479 39.2819C31.8622 39.8225 31.3634 40.2726 30.7861 40.6008C30.2088 40.9291 29.5669 41.1276 28.9051 41.1826C28.2433 41.2376 27.5775 41.1478 26.9539 40.9193C26.3304 40.6909 25.7641 40.3293 25.2944 39.8598C24.9276 39.4926 24.492 39.2014 24.0125 39.0026C23.533 38.8039 23.019 38.7016 22.5 38.7016C21.981 38.7016 21.467 38.8039 20.9875 39.0026C20.5081 39.2014 20.0725 39.4926 19.7056 39.8598C19.236 40.3288 18.6699 40.69 18.0466 40.9181C17.4233 41.1463 16.7578 41.236 16.0964 41.181C15.4349 41.126 14.7934 40.9277 14.2163 40.5997C13.6393 40.2718 13.1406 39.8221 12.7548 39.2819L10.0879 35.5488L9.15467 33.8396C7.25998 30.3663 6.41899 26.4159 6.73466 22.4721L6.75094 22.2713C6.84084 21.1478 7.16313 20.0551 7.69738 19.0627C8.23163 18.0702 8.9662 17.1995 9.85455 16.5057C10.7429 15.812 11.7657 15.3103 12.858 15.0325C13.9504 14.7547 15.0885 14.7068 16.2004 14.8919L18.1348 15.2147Z"/>
</mask>
<path d="M14.9714 18.2072C15.0848 18.5483 15.0582 18.9204 14.8975 19.2419C14.7367 19.5634 14.455 19.8079 14.1141 19.9218C13.6976 20.0535 13.3112 20.2664 12.9774 20.5481C12.6435 20.8298 12.3687 21.1748 12.1688 21.5632C11.6642 22.51 11.3224 24.0673 11.6398 26.6094C11.684 26.9667 11.5846 27.3269 11.3632 27.6108C11.1419 27.8947 10.8169 28.079 10.4596 28.1233C10.1024 28.1675 9.74219 28.0681 9.45828 27.8467C9.17438 27.6254 8.99002 27.3004 8.94577 26.9431C8.58765 24.0592 8.92135 21.8861 9.77595 20.2881C10.6441 18.6603 11.9654 17.7785 13.254 17.3499C13.4231 17.2933 13.6016 17.2706 13.7795 17.2831C13.9573 17.2956 14.1309 17.343 14.2904 17.4226C14.4499 17.5022 14.5921 17.6125 14.709 17.7471C14.8258 17.8818 14.915 18.0381 14.9714 18.2072ZM28.3574 3.64371C28.531 3.5911 28.6923 3.50421 28.8317 3.38819C28.9711 3.27216 29.0858 3.12935 29.1691 2.9682C29.2524 2.80706 29.3025 2.63085 29.3164 2.45001C29.3304 2.26917 29.308 2.08736 29.2504 1.91534C29.1929 1.74332 29.1015 1.58458 28.9815 1.44851C28.8616 1.31245 28.7156 1.20182 28.5521 1.12317C28.3887 1.04452 28.2111 0.99945 28.03 0.990621C27.8488 0.981793 27.6677 1.00939 27.4974 1.07177C24.9553 1.91823 23.3682 4.00726 22.4349 6.2455C22.3096 6.54805 22.1947 6.8548 22.0903 7.16521C21.5821 6.20247 20.9318 5.32172 20.1614 4.55258C19.1186 3.50754 17.8731 2.68685 16.5014 2.14097C15.1297 1.59509 13.6608 1.33557 12.1851 1.37834C10.6116 1.42175 9.35543 2.68059 9.31203 4.25143C9.2689 5.74676 9.53617 7.23479 10.097 8.62164C10.6578 10.0085 11.5 11.2641 12.5704 12.3091C10.2914 12.8028 8.23194 14.017 6.69672 15.7721C5.16149 17.5272 4.23209 19.7299 4.04606 22.0543L4.02978 22.255C3.67161 26.7239 4.62383 31.2003 6.76993 35.1364L7.74661 36.9216C7.77374 36.9677 7.80087 37.0138 7.83343 37.0573L10.5464 40.8609C11.1613 41.722 11.9565 42.4389 12.8765 42.9616C13.7965 43.4842 14.8194 43.8002 15.8739 43.8875C16.9284 43.9747 17.9893 43.8312 18.9827 43.4669C19.9762 43.1026 20.8783 42.5262 21.6264 41.7779C21.7413 41.663 21.8777 41.5718 22.0278 41.5096C22.178 41.4474 22.3389 41.4154 22.5014 41.4154C22.6639 41.4154 22.8248 41.4474 22.9749 41.5096C23.125 41.5718 23.2614 41.663 23.3763 41.7779C24.1244 42.5262 25.0266 43.1026 26.02 43.4669C27.0134 43.8312 28.0743 43.9747 29.1288 43.8875C30.1834 43.8002 31.2062 43.4842 32.1262 42.9616C33.0463 42.4389 33.8414 41.722 34.4563 40.8609L37.1693 37.06C37.2009 37.0156 37.2299 36.9694 37.2561 36.9216L38.2301 35.1364C40.3762 31.2003 41.3284 26.7239 40.9702 22.255L40.9567 22.0543C40.8366 20.5561 40.4067 19.0992 39.694 17.7759C38.9814 16.4526 38.0017 15.2917 36.817 14.3669C35.6322 13.4421 34.2683 12.7734 32.8116 12.4033C31.3549 12.0332 29.8372 11.9697 28.3547 12.2169L23.8592 12.9656C23.8864 11.1181 24.2119 9.03991 24.9417 7.2873C25.7014 5.45601 26.83 4.15376 28.3547 3.64371M19.0246 12.613L18.6068 12.5424C17.0137 12.2351 15.5496 11.4562 14.4044 10.3069C13.6205 9.52492 13.005 8.59075 12.5958 7.56193C12.1866 6.53311 11.9924 5.43141 12.025 4.32468C12.0257 4.2623 12.0508 4.20267 12.095 4.15856C12.1391 4.11445 12.1987 4.08935 12.2611 4.08865C13.368 4.05634 14.4698 4.25102 15.4987 4.66068C16.5275 5.07035 17.4615 5.68633 18.2433 6.47068C19.8901 8.11748 20.685 10.2906 20.6226 12.4529C20.6219 12.5153 20.5968 12.5749 20.5527 12.619C20.5086 12.6631 20.4489 12.6882 20.3866 12.6889C19.9313 12.7015 19.4757 12.6761 19.0246 12.613ZM18.1348 15.2147L18.6041 15.2934L20.7176 15.6461C21.8986 15.8429 23.1041 15.8429 24.2852 15.6461L28.7996 14.8919C29.9117 14.7064 31.0501 14.754 32.1428 15.0316C33.2355 15.3092 34.2586 15.8108 35.1473 16.5046C36.0359 17.1984 36.7707 18.0692 37.3052 19.0619C37.8396 20.0546 38.1619 21.1475 38.2518 22.2713L38.2681 22.4721C38.5837 26.4159 37.7428 30.3663 35.8481 33.8396L34.9148 35.5488L32.2479 39.2819C31.8622 39.8225 31.3634 40.2726 30.7861 40.6008C30.2088 40.9291 29.5669 41.1276 28.9051 41.1826C28.2433 41.2376 27.5775 41.1478 26.9539 40.9193C26.3304 40.6909 25.7641 40.3293 25.2944 39.8598C24.9276 39.4926 24.492 39.2014 24.0125 39.0026C23.533 38.8039 23.019 38.7016 22.5 38.7016C21.981 38.7016 21.467 38.8039 20.9875 39.0026C20.5081 39.2014 20.0725 39.4926 19.7056 39.8598C19.236 40.3288 18.6699 40.69 18.0466 40.9181C17.4233 41.1463 16.7578 41.236 16.0964 41.181C15.4349 41.126 14.7934 40.9277 14.2163 40.5997C13.6393 40.2718 13.1406 39.8221 12.7548 39.2819L10.0879 35.5488L9.15467 33.8396C7.25998 30.3663 6.41899 26.4159 6.73466 22.4721L6.75094 22.2713C6.84084 21.1478 7.16313 20.0551 7.69738 19.0627C8.23163 18.0702 8.9662 17.1995 9.85455 16.5057C10.7429 15.812 11.7657 15.3103 12.858 15.0325C13.9504 14.7547 15.0885 14.7068 16.2004 14.8919L18.1348 15.2147Z" fill="black"/>
<path d="M14.9714 18.2072L15.9203 17.8917L15.92 17.8909L14.9714 18.2072ZM14.1141 19.9218L14.4155 20.8753L14.4233 20.8729L14.431 20.8703L14.1141 19.9218ZM12.1688 21.5632L13.0513 22.0335L13.0547 22.0272L13.058 22.0208L12.1688 21.5632ZM11.6398 26.6094L12.6322 26.4865L12.6321 26.4855L11.6398 26.6094ZM8.94577 26.9431L9.93818 26.8202L9.93815 26.8199L8.94577 26.9431ZM9.77595 20.2881L10.6578 20.7597L10.6583 20.7587L9.77595 20.2881ZM13.254 17.3499L13.5697 18.2988L13.5714 18.2982L13.254 17.3499ZM27.4974 1.07177L27.8133 2.02056L27.8274 2.01587L27.8413 2.01076L27.4974 1.07177ZM22.4349 6.2455L21.5119 5.86064L21.511 5.86283L22.4349 6.2455ZM22.0903 7.16521L21.206 7.63205L22.2951 9.69511L23.0382 7.48377L22.0903 7.16521ZM20.1614 4.55258L19.4535 5.25892L19.4549 5.26029L20.1614 4.55258ZM12.1851 1.37834L12.2127 2.37796L12.2141 2.37792L12.1851 1.37834ZM9.31203 4.25143L10.3116 4.28026L10.3116 4.27905L9.31203 4.25143ZM12.5704 12.3091L12.7821 13.2864L14.5996 12.8927L13.2689 11.5936L12.5704 12.3091ZM4.04606 22.0543L5.04279 22.1351L5.04287 22.134L4.04606 22.0543ZM4.02978 22.255L3.03305 22.1742L3.03297 22.1751L4.02978 22.255ZM6.76993 35.1364L5.89195 35.6151L5.89264 35.6164L6.76993 35.1364ZM7.74661 36.9216L6.86933 37.4016L6.87679 37.4152L6.88468 37.4286L7.74661 36.9216ZM7.83343 37.0573L8.64756 36.4766L8.64061 36.4668L8.63343 36.4573L7.83343 37.0573ZM10.5464 40.8609L9.73232 41.4416L9.73262 41.442L10.5464 40.8609ZM21.6264 41.7779L22.3336 42.4849L22.3337 42.4849L21.6264 41.7779ZM23.3763 41.7779L22.6691 42.4849L22.6691 42.4849L23.3763 41.7779ZM34.4563 40.8609L35.2701 41.442L35.2702 41.4419L34.4563 40.8609ZM37.1693 37.06L37.9832 37.6409L37.9835 37.6405L37.1693 37.06ZM37.2561 36.9216L38.1331 37.4022L38.134 37.4005L37.2561 36.9216ZM38.2301 35.1364L39.1079 35.6154L39.1081 35.6151L38.2301 35.1364ZM40.9702 22.255L39.9724 22.3224L39.9734 22.3349L40.9702 22.255ZM40.9567 22.0543L41.9545 21.9868L41.9535 21.9744L40.9567 22.0543ZM28.3547 12.2169L28.519 13.2033L28.5192 13.2032L28.3547 12.2169ZM23.8592 12.9656L22.8593 12.951L22.8418 14.1489L24.0235 13.9521L23.8592 12.9656ZM24.9417 7.2873L25.8649 7.67171L25.8654 7.67046L24.9417 7.2873ZM19.0246 12.613L18.8582 13.599L18.8721 13.6013L18.886 13.6033L19.0246 12.613ZM18.6068 12.5424L18.4174 13.5243L18.4288 13.5265L18.4404 13.5285L18.6068 12.5424ZM14.4044 10.3069L15.1127 9.60104L15.1106 9.59893L14.4044 10.3069ZM12.025 4.32468L13.0246 4.35418L13.0249 4.34508L13.025 4.33598L12.025 4.32468ZM12.2611 4.08865L12.2724 5.08859L12.2813 5.08848L12.2903 5.08822L12.2611 4.08865ZM18.2433 6.47068L17.535 7.17661L17.5362 7.17779L18.2433 6.47068ZM20.6226 12.4529L19.623 12.424L19.6228 12.4328L19.6227 12.4416L20.6226 12.4529ZM20.3866 12.6889L20.3753 11.689L20.3671 11.6891L20.359 11.6893L20.3866 12.6889ZM18.1348 15.2147L18.3001 14.2285L18.2994 14.2284L18.1348 15.2147ZM18.6041 15.2934L18.4388 16.2797L18.4395 16.2798L18.6041 15.2934ZM20.7176 15.6461L20.553 16.6325L20.5532 16.6325L20.7176 15.6461ZM24.2852 15.6461L24.4496 16.6325L24.45 16.6324L24.2852 15.6461ZM28.7996 14.8919L28.6351 13.9055L28.6349 13.9056L28.7996 14.8919ZM38.2518 22.2713L37.255 22.351L37.2551 22.3521L38.2518 22.2713ZM38.2681 22.4721L39.2649 22.3923L39.2648 22.3912L38.2681 22.4721ZM35.8481 33.8396L36.7257 34.3189L36.7259 34.3185L35.8481 33.8396ZM34.9148 35.5488L35.7285 36.1301L35.7636 36.081L35.7925 36.0281L34.9148 35.5488ZM32.2479 39.2819L31.4342 38.7006L31.4338 38.7011L32.2479 39.2819ZM25.2944 39.8598L24.587 40.5666L24.5874 40.567L25.2944 39.8598ZM22.5 38.7016V37.7016V38.7016ZM19.7056 39.8598L20.4123 40.5673L20.413 40.5666L19.7056 39.8598ZM12.7548 39.2819L13.5687 38.7008L13.5685 38.7006L12.7548 39.2819ZM10.0879 35.5488L9.21027 36.0281L9.23918 36.081L9.27426 36.1301L10.0879 35.5488ZM9.15467 33.8396L8.27679 34.3185L8.27699 34.3189L9.15467 33.8396ZM6.73466 22.4721L5.73793 22.3912L5.73785 22.3923L6.73466 22.4721ZM6.75094 22.2713L7.74767 22.3521L7.74775 22.3511L6.75094 22.2713ZM16.2004 14.8919L16.365 13.9055L16.3646 13.9055L16.2004 14.8919ZM14.0225 18.5227C14.0523 18.6124 14.0453 18.7102 14.003 18.7947L15.7919 19.6891C16.0711 19.1306 16.1173 18.4842 15.9203 17.8917L14.0225 18.5227ZM14.003 18.7947C13.9608 18.8792 13.8868 18.9434 13.7972 18.9734L14.431 20.8703C15.0232 20.6724 15.5127 20.2476 15.7919 19.6891L14.003 18.7947ZM13.8126 18.9683C13.2703 19.1398 12.7672 19.417 12.3325 19.7838L13.6223 21.3123C13.8553 21.1157 14.1249 20.9672 14.4155 20.8753L13.8126 18.9683ZM12.3325 19.7838C11.8978 20.1506 11.5399 20.5999 11.2797 21.1056L13.058 22.0208C13.1975 21.7497 13.3893 21.5089 13.6223 21.3123L12.3325 19.7838ZM11.2863 21.0929C10.6536 22.2802 10.3142 24.064 10.6475 26.7333L12.6321 26.4855C12.3306 24.0707 12.6749 22.7399 13.0513 22.0335L11.2863 21.0929ZM10.6474 26.7323C10.659 26.8264 10.6328 26.9212 10.5746 26.9959L12.1519 28.2256C12.5363 27.7325 12.7091 27.1069 12.6322 26.4865L10.6474 26.7323ZM10.5746 26.9959C10.5163 27.0707 10.4308 27.1192 10.3367 27.1309L10.5826 29.1157C11.203 29.0388 11.7675 28.7187 12.1519 28.2256L10.5746 26.9959ZM10.3367 27.1309C10.2427 27.1425 10.1478 27.1163 10.0731 27.0581L8.84346 28.6354C9.33653 29.0198 9.96211 29.1925 10.5826 29.1157L10.3367 27.1309ZM10.0731 27.0581C9.99836 26.9998 9.94983 26.9142 9.93818 26.8202L7.95335 27.066C8.03021 27.6865 8.35039 28.251 8.84346 28.6354L10.0731 27.0581ZM9.93815 26.8199C9.59564 24.0617 9.93242 22.116 10.6578 20.7597L8.89414 19.8165C7.91028 21.6561 7.57966 24.0567 7.95339 27.0664L9.93815 26.8199ZM10.6583 20.7587C11.3871 19.3921 12.4837 18.66 13.5697 18.2988L12.9384 16.401C11.447 16.8971 9.9011 17.9284 8.8936 19.8175L10.6583 20.7587ZM13.5714 18.2982C13.6158 18.2833 13.6627 18.2774 13.7095 18.2806L13.8494 16.2855C13.5405 16.2639 13.2304 16.3033 12.9367 16.4016L13.5714 18.2982ZM13.7095 18.2806C13.7562 18.2839 13.8018 18.2964 13.8438 18.3173L14.7371 16.5279C14.46 16.3896 14.1584 16.3072 13.8494 16.2855L13.7095 18.2806ZM13.8438 18.3173C13.8857 18.3382 13.9231 18.3672 13.9538 18.4026L15.4642 17.0916C15.2612 16.8578 15.0141 16.6662 14.7371 16.5279L13.8438 18.3173ZM13.9538 18.4026C13.9845 18.438 14.0079 18.4791 14.0227 18.5235L15.92 17.8909C15.8221 17.5971 15.6672 17.3255 15.4642 17.0916L13.9538 18.4026ZM28.6475 4.60072C28.949 4.50933 29.2292 4.35838 29.4714 4.15682L28.192 2.61955C28.1554 2.65004 28.113 2.67288 28.0674 2.68671L28.6475 4.60072ZM29.4714 4.15682C29.7136 3.95526 29.9129 3.70717 30.0575 3.42723L28.2807 2.50917C28.2588 2.55153 28.2286 2.58906 28.192 2.61955L29.4714 4.15682ZM30.0575 3.42723C30.2022 3.14731 30.2892 2.8412 30.3135 2.52704L28.3194 2.37298C28.3157 2.4205 28.3026 2.46681 28.2807 2.50917L30.0575 3.42723ZM30.3135 2.52704C30.3377 2.21287 30.2987 1.89703 30.1988 1.59821L28.3021 2.23246C28.3172 2.27768 28.3231 2.32546 28.3194 2.37298L30.3135 2.52704ZM30.1988 1.59821C30.0989 1.29938 29.9401 1.02362 29.7317 0.78725L28.2314 2.10978C28.2629 2.14554 28.2869 2.18725 28.3021 2.23246L30.1988 1.59821ZM29.7317 0.78725C29.5233 0.550882 29.2697 0.358698 28.9858 0.222069L28.1185 2.02427C28.1615 2.04494 28.1999 2.07401 28.2314 2.10978L29.7317 0.78725ZM28.9858 0.222069C28.7018 0.0854402 28.3934 0.00714272 28.0786 -0.00819343L27.9813 1.98944C28.0289 1.99176 28.0756 2.0036 28.1185 2.02427L28.9858 0.222069ZM28.0786 -0.00819343C27.7639 -0.0235296 27.4493 0.0244077 27.1535 0.132782L27.8413 2.01076C27.8861 1.99437 27.9337 1.98712 27.9813 1.98944L28.0786 -0.00819343ZM27.1815 0.122988C24.2627 1.09487 22.5069 3.4744 21.5119 5.86065L23.3579 6.63035C24.2294 4.54011 25.6479 2.7416 27.8133 2.02056L27.1815 0.122988ZM21.511 5.86283C21.377 6.18647 21.254 6.5146 21.1424 6.84665L23.0382 7.48377C23.1353 7.195 23.2422 6.90963 23.3588 6.62817L21.511 5.86283ZM22.9747 6.69837C22.4196 5.64687 21.7094 4.68492 20.8679 3.84487L19.4549 5.26029C20.1543 5.95852 20.7446 6.75807 21.206 7.63205L22.9747 6.69837ZM20.8693 3.84623C19.7301 2.70465 18.3695 1.80815 16.8711 1.21184L16.1316 3.0701C17.3766 3.56555 18.5071 4.31043 19.4535 5.25892L20.8693 3.84623ZM16.8711 1.21184C15.3727 0.615537 13.7682 0.332033 12.1561 0.378764L12.2141 2.37792C13.5535 2.3391 14.8866 2.57465 16.1316 3.0701L16.8711 1.21184ZM12.1575 0.378724C10.0527 0.436789 8.37046 2.12297 8.31241 4.22381L10.3116 4.27905C10.3404 3.23821 11.1704 2.40672 12.2127 2.37796L12.1575 0.378724ZM8.31244 4.2226C8.26533 5.85606 8.55729 7.48156 9.16991 8.99653L11.0241 8.24676C10.515 6.98802 10.2725 5.63745 10.3116 4.28026L8.31244 4.2226ZM9.16991 8.99653C9.78253 10.5115 10.7025 11.883 11.8718 13.0246L13.2689 11.5936C12.2974 10.6451 11.5331 9.50549 11.0241 8.24676L9.16991 8.99653ZM12.3587 11.3318C9.86981 11.8709 7.62066 13.1969 5.94404 15.1137L7.4494 16.4305C8.84322 14.837 10.713 13.7346 12.7821 13.2864L12.3587 11.3318ZM5.94404 15.1137C4.26742 17.0304 3.25242 19.436 3.04924 21.9745L5.04287 22.134C5.21177 20.0238 6.05557 18.0239 7.4494 16.4305L5.94404 15.1137ZM3.04933 21.9734L3.03305 22.1742L5.02651 22.3358L5.04279 22.1351L3.04933 21.9734ZM3.03297 22.1751C2.65928 26.8378 3.65279 31.5083 5.89195 35.6151L7.64791 34.6577C5.59487 30.8923 4.68395 26.61 5.02658 22.3349L3.03297 22.1751ZM5.89264 35.6164L6.86933 37.4016L8.6239 36.4416L7.64721 34.6565L5.89264 35.6164ZM6.88468 37.4286C6.90733 37.4671 6.96182 37.5618 7.03343 37.6573L8.63343 36.4573C8.63882 36.4644 8.63988 36.4667 8.63528 36.4593C8.63304 36.4557 8.62993 36.4507 8.62538 36.4431C8.62062 36.4351 8.61563 36.4266 8.60855 36.4146L6.88468 37.4286ZM7.0193 37.6379L9.73232 41.4416L11.3606 40.2802L8.64756 36.4766L7.0193 37.6379ZM9.73262 41.442C10.4319 42.4214 11.3362 43.2366 12.3825 43.831L13.3704 42.0921C12.5767 41.6411 11.8908 41.0227 11.3603 40.2798L9.73262 41.442ZM12.3825 43.831C13.4289 44.4255 14.5921 44.7848 15.7914 44.8841L15.9564 42.8909C15.0466 42.8156 14.1642 42.543 13.3704 42.0921L12.3825 43.831ZM15.7914 44.8841C16.9907 44.9833 18.1972 44.8201 19.327 44.4058L18.6384 42.5281C17.7814 42.8424 16.8661 42.9662 15.9564 42.8909L15.7914 44.8841ZM19.327 44.4058C20.4569 43.9915 21.4828 43.336 22.3336 42.4849L20.9192 41.0709C20.2738 41.7165 19.4955 42.2138 18.6384 42.5281L19.327 44.4058ZM22.3337 42.4849C22.3557 42.4629 22.3818 42.4454 22.4106 42.4335L21.6451 40.5858C21.3736 40.6982 21.1269 40.8631 20.9192 41.0709L22.3337 42.4849ZM22.4106 42.4335C22.4394 42.4215 22.4702 42.4154 22.5014 42.4154V40.4154C22.2075 40.4154 21.9165 40.4733 21.6451 40.5858L22.4106 42.4335ZM22.5014 42.4154C22.5325 42.4154 22.5633 42.4215 22.5921 42.4335L23.3577 40.5858C23.0862 40.4733 22.7952 40.4154 22.5014 40.4154V42.4154ZM22.5921 42.4335C22.6209 42.4454 22.6471 42.4629 22.6691 42.4849L24.0836 41.0709C23.8758 40.8631 23.6291 40.6982 23.3577 40.5858L22.5921 42.4335ZM22.6691 42.4849C23.5199 43.336 24.5459 43.9915 25.6757 44.4058L26.3643 42.5281C25.5072 42.2138 24.7289 41.7165 24.0835 41.0709L22.6691 42.4849ZM25.6757 44.4058C26.8055 44.8201 28.012 44.9833 29.2113 44.8841L29.0464 42.8909C28.1366 42.9662 27.2213 42.8424 26.3643 42.5281L25.6757 44.4058ZM29.2113 44.8841C30.4106 44.7848 31.5739 44.4255 32.6202 43.831L31.6323 42.0921C30.8386 42.543 29.9561 42.8156 29.0464 42.8909L29.2113 44.8841ZM32.6202 43.831C33.6665 43.2366 34.5708 42.4214 35.2701 41.442L33.6425 40.2798C33.112 41.0227 32.426 41.6411 31.6323 42.0921L32.6202 43.831ZM35.2702 41.4419L37.9832 37.6409L36.3554 36.479L33.6424 40.2799L35.2702 41.4419ZM37.9835 37.6405C38.038 37.5641 38.088 37.4845 38.1331 37.4022L36.3792 36.441C36.3719 36.4543 36.3639 36.4671 36.3551 36.4794L37.9835 37.6405ZM38.134 37.4005L39.1079 35.6154L37.3522 34.6575L36.3783 36.4427L38.134 37.4005ZM39.1081 35.6151C41.3472 31.5083 42.3407 26.8378 41.967 22.1751L39.9734 22.3349C40.3161 26.61 39.4051 30.8923 37.3521 34.6577L39.1081 35.6151ZM41.968 22.1876L41.9544 21.9868L39.959 22.1217L39.9725 22.3224L41.968 22.1876ZM41.9535 21.9744C41.8223 20.3381 41.3528 18.747 40.5745 17.3018L38.8136 18.25C39.4605 19.4514 39.8509 20.774 39.9599 22.1341L41.9535 21.9744ZM40.5745 17.3018C39.7962 15.8565 38.7262 14.5887 37.4323 13.5786L36.2016 15.1552C37.2772 15.9948 38.1666 17.0487 38.8136 18.25L40.5745 17.3018ZM37.4323 13.5786C36.1384 12.5686 34.6488 11.8383 33.0579 11.4341L32.5654 13.3725C33.8878 13.7085 35.1261 14.3155 36.2016 15.1552L37.4323 13.5786ZM33.0579 11.4341C31.4669 11.0299 29.8094 10.9605 28.1903 11.2305L28.5192 13.2032C29.8651 12.9789 31.2429 13.0365 32.5654 13.3725L33.0579 11.4341ZM28.1904 11.2304L23.6949 11.9792L24.0235 13.9521L28.519 13.2033L28.1904 11.2304ZM24.8591 12.9803C24.8849 11.2235 25.1961 9.27772 25.8649 7.67171L24.0186 6.90289C23.2277 8.8021 22.8878 11.0126 22.8593 12.951L24.8591 12.9803ZM25.8654 7.67046C26.5615 5.99229 27.5204 4.97729 28.6719 4.59206L28.0375 2.69537C26.1396 3.33024 24.8412 4.91973 24.018 6.90414L25.8654 7.67046ZM19.1911 11.6269L18.7733 11.5564L18.4404 13.5285L18.8582 13.599L19.1911 11.6269ZM18.7963 11.5605C17.3999 11.2911 16.1166 10.6085 15.1127 9.60104L13.696 11.0127C14.9827 12.304 16.6275 13.179 18.4174 13.5243L18.7963 11.5605ZM15.1106 9.59893C14.4234 8.91335 13.8838 8.09435 13.525 7.19236L11.6666 7.93151C12.1263 9.08716 12.8176 10.1365 13.6981 11.0148L15.1106 9.59893ZM13.525 7.19236C13.1663 6.29037 12.996 5.32448 13.0246 4.35418L11.0255 4.29518C10.9888 5.53834 11.207 6.77586 11.6666 7.93151L13.525 7.19236ZM13.025 4.33598C13.0227 4.53489 12.9427 4.72502 12.8021 4.86567L11.3878 3.45145C11.159 3.68033 11.0288 3.98971 11.0251 4.31338L13.025 4.33598ZM12.8021 4.86567C12.6614 5.00632 12.4713 5.08634 12.2724 5.08859L12.2498 3.08871C11.9261 3.09237 11.6167 3.22258 11.3878 3.45145L12.8021 4.86567ZM12.2903 5.08822C13.2607 5.0599 14.2267 5.23058 15.1287 5.58974L15.8686 3.73163C14.7129 3.27146 13.4753 3.05278 12.2319 3.08908L12.2903 5.08822ZM15.1287 5.58974C16.0307 5.9489 16.8496 6.48895 17.535 7.17661L18.9516 5.76475C18.0735 4.88371 17.0243 4.1918 15.8686 3.73163L15.1287 5.58974ZM17.5362 7.17779C18.9811 8.62275 19.6778 10.5265 19.623 12.424L21.6222 12.4817C21.6922 10.0547 20.799 7.61221 18.9504 5.76357L17.5362 7.17779ZM19.6227 12.4416C19.6249 12.2427 19.7049 12.0526 19.8456 11.9119L21.2598 13.3261C21.4887 13.0972 21.6189 12.7878 21.6225 12.4642L19.6227 12.4416ZM19.8456 11.9119C19.9862 11.7712 20.1764 11.6912 20.3753 11.689L20.3979 13.6889C20.7215 13.6852 21.0309 13.555 21.2598 13.3261L19.8456 11.9119ZM20.359 11.6893C19.9592 11.7003 19.5593 11.678 19.1632 11.6226L18.886 13.6033C19.3922 13.6741 19.9033 13.7027 20.4142 13.6885L20.359 11.6893ZM17.9694 16.201L18.4388 16.2797L18.7694 14.3072L18.3001 14.2285L17.9694 16.201ZM18.4395 16.2798L20.553 16.6325L20.8822 14.6597L18.7687 14.3071L18.4395 16.2798ZM20.5532 16.6325C21.8431 16.8475 23.1597 16.8475 24.4496 16.6325L24.1208 14.6597C23.0486 14.8384 21.9542 14.8384 20.8819 14.6597L20.5532 16.6325ZM24.45 16.6324L28.9644 15.8782L28.6349 13.9056L24.1204 14.6598L24.45 16.6324ZM28.9642 15.8783C29.9396 15.7156 30.9381 15.7573 31.8966 16.0008L32.3891 14.0624C31.1621 13.7507 29.8838 13.6973 28.6351 13.9055L28.9642 15.8783ZM31.8966 16.0008C32.855 16.2443 33.7524 16.6843 34.5319 17.2928L35.7626 15.7164C34.7648 14.9373 33.616 14.3741 32.3891 14.0624L31.8966 16.0008ZM34.5319 17.2928C35.3113 17.9014 35.9559 18.6652 36.4246 19.5359L38.1857 18.5879C37.5856 17.4732 36.7605 16.4954 35.7626 15.7164L34.5319 17.2928ZM36.4246 19.5359C36.8934 20.4067 37.1762 21.3653 37.255 22.351L39.2486 22.1916C39.1477 20.9297 38.7857 19.7025 38.1857 18.5879L36.4246 19.5359ZM37.2551 22.3521L37.2714 22.5529L39.2648 22.3912L39.2485 22.1905L37.2551 22.3521ZM37.2713 22.5518C37.5714 26.3019 36.7718 30.0581 34.9702 33.3607L36.7259 34.3185C38.7138 30.6745 39.5961 26.53 39.2649 22.3923L37.2713 22.5518ZM34.9704 33.3604L34.0371 35.0696L35.7925 36.0281L36.7257 34.3189L34.9704 33.3604ZM34.1011 34.9675L31.4342 38.7006L33.0616 39.8632L35.7285 36.1301L34.1011 34.9675ZM31.4338 38.7011C31.1325 39.1235 30.7428 39.4751 30.2918 39.7315L31.2803 41.4701C31.9839 41.0701 32.5919 40.5216 33.0619 39.8627L31.4338 38.7011ZM30.2918 39.7315C29.8408 39.988 29.3393 40.1431 28.8223 40.1861L28.9879 42.1792C29.7945 42.1122 30.5768 41.8702 31.2803 41.4701L30.2918 39.7315ZM28.8223 40.1861C28.3052 40.229 27.7851 40.1588 27.2979 39.9804L26.6099 41.8583C27.3699 42.1367 28.1813 42.2462 28.9879 42.1792L28.8223 40.1861ZM27.2979 39.9804C26.8108 39.8019 26.3683 39.5194 26.0014 39.1526L24.5874 40.567C25.1598 41.1392 25.8499 41.5799 26.6099 41.8583L27.2979 39.9804ZM26.0018 39.153C25.5421 38.6929 24.9962 38.3279 24.3954 38.0788L23.6296 39.9264C23.9877 40.0748 24.313 40.2924 24.587 40.5666L26.0018 39.153ZM24.3954 38.0788C23.7945 37.8298 23.1504 37.7016 22.5 37.7016V39.7016C22.8876 39.7016 23.2715 39.778 23.6296 39.9264L24.3954 38.0788ZM22.5 37.7016C21.8496 37.7016 21.2055 37.8298 20.6047 38.0788L21.3704 39.9264C21.7285 39.778 22.1124 39.7016 22.5 39.7016V37.7016ZM20.6047 38.0788C20.0038 38.3279 19.4579 38.6929 18.9982 39.153L20.413 40.5666C20.687 40.2924 21.0123 40.0748 21.3704 39.9264L20.6047 38.0788ZM18.9989 39.1523C18.632 39.5187 18.1898 39.8008 17.7028 39.9791L18.3903 41.8572C19.15 41.5791 19.8399 41.139 20.4123 40.5673L18.9989 39.1523ZM17.7028 39.9791C17.2159 40.1573 16.696 40.2274 16.1792 40.1845L16.0135 42.1776C16.8196 42.2446 17.6307 42.1353 18.3903 41.8572L17.7028 39.9791ZM16.1792 40.1845C15.6625 40.1415 15.1613 39.9865 14.7104 39.7303L13.7222 41.4691C14.4255 41.8688 15.2074 42.1106 16.0135 42.1776L16.1792 40.1845ZM14.7104 39.7303C14.2596 39.4741 13.87 39.1228 13.5687 38.7008L11.941 39.8631C12.4111 40.5214 13.0189 41.0694 13.7222 41.4691L14.7104 39.7303ZM13.5685 38.7006L10.9016 34.9675L9.27426 36.1301L11.9412 39.8632L13.5685 38.7006ZM10.9656 35.0696L10.0324 33.3604L8.27699 34.3189L9.21027 36.0281L10.9656 35.0696ZM10.0325 33.3607C8.23097 30.0581 7.43132 26.3019 7.73147 22.5518L5.73785 22.3923C5.40667 26.53 6.28898 30.6745 8.27679 34.3185L10.0325 33.3607ZM7.73139 22.5529L7.74767 22.3521L5.75421 22.1905L5.73793 22.3912L7.73139 22.5529ZM7.74775 22.3511C7.82661 21.3656 8.1093 20.4072 8.57791 19.5366L6.81685 18.5887C6.21696 19.7031 5.85507 20.93 5.75412 22.1915L7.74775 22.3511ZM8.57791 19.5366C9.04652 18.6661 9.69084 17.9024 10.47 17.2939L9.23906 15.7176C8.24157 16.4966 7.41674 17.4742 6.81685 18.5887L8.57791 19.5366ZM10.47 17.2939C11.2492 16.6854 12.1463 16.2454 13.1045 16.0017L12.6115 14.0634C11.385 14.3753 10.2366 14.9386 9.23906 15.7176L10.47 17.2939ZM13.1045 16.0017C14.0626 15.758 15.061 15.716 16.0362 15.8783L16.3646 13.9055C15.1161 13.6977 13.8381 13.7514 12.6115 14.0634L13.1045 16.0017ZM16.0358 15.8782L17.9701 16.2011L18.2994 14.2284L16.365 13.9055L16.0358 15.8782Z" fill="black" mask="url(#path-1-inside-1_21_2175)"/>
</svg>
