<svg width="38" height="38" viewBox="0 0 38 38" fill="currentColor" xmlns="http://www.w3.org/2000/svg">
<path fill-rule="evenodd" clip-rule="evenodd" d="M19 22.3582L27.3964 30.7562C27.842 31.2018 28.4463 31.4521 29.0764 31.4521C29.7064 31.4521 30.3107 31.2018 30.7563 30.7562C31.2018 30.3107 31.4521 29.7064 31.4521 29.0763C31.4521 28.4462 31.2018 27.8419 30.7563 27.3964L22.3567 19L30.7547 10.6036C30.9752 10.383 31.1501 10.1211 31.2694 9.83288C31.3887 9.54468 31.45 9.23581 31.45 8.92389C31.4499 8.61197 31.3884 8.30313 31.269 8.01498C31.1495 7.72684 30.9745 7.46504 30.7539 7.24453C30.5333 7.02403 30.2714 6.84913 29.9832 6.72984C29.695 6.61054 29.3861 6.54918 29.0742 6.54925C28.7623 6.54932 28.4535 6.61083 28.1653 6.73026C27.8772 6.8497 27.6154 7.02472 27.3949 7.24532L19 15.6417L10.6036 7.24532C10.3846 7.01839 10.1226 6.83733 9.83294 6.71273C9.54324 6.58812 9.23163 6.52246 8.91628 6.51957C8.60093 6.51668 8.28817 6.57663 7.99623 6.69591C7.7043 6.81519 7.43904 6.99141 7.21594 7.2143C6.99285 7.43719 6.81637 7.70228 6.69681 7.9941C6.57726 8.28592 6.51702 8.59863 6.51961 8.91398C6.5222 9.22933 6.58757 9.54101 6.7119 9.83083C6.83624 10.1206 7.01704 10.3828 7.24377 10.602L15.6434 19L7.24536 27.3964C6.79982 27.8419 6.54951 28.4462 6.54951 29.0763C6.54951 29.7064 6.79982 30.3107 7.24536 30.7562C7.6909 31.2018 8.29518 31.4521 8.92527 31.4521C9.55537 31.4521 10.1596 31.2018 10.6052 30.7562L19 22.3567V22.3582Z"/>
</svg>
