<svg width="14" height="14" viewBox="0 0 14 14" fill="none" xmlns="http://www.w3.org/2000/svg">
<path fill-rule="evenodd" clip-rule="evenodd" d="M6.99983 8.76759L11.419 13.1876C11.6535 13.4221 11.9715 13.5538 12.3032 13.5538C12.6348 13.5538 12.9528 13.4221 13.1873 13.1876C13.4218 12.9531 13.5536 12.6351 13.5536 12.3034C13.5536 11.9718 13.4218 11.6538 13.1873 11.4193L8.7665 7.00009L13.1865 2.58092C13.3026 2.46481 13.3946 2.32698 13.4574 2.1753C13.5202 2.02361 13.5525 1.86105 13.5524 1.69688C13.5524 1.53271 13.52 1.37016 13.4572 1.21851C13.3943 1.06685 13.3022 0.929064 13.1861 0.813008C13.07 0.696953 12.9321 0.604903 12.7805 0.542115C12.6288 0.479327 12.4662 0.447031 12.302 0.447069C12.1379 0.447108 11.9753 0.479481 11.8237 0.542341C11.672 0.6052 11.5342 0.697315 11.4182 0.813425L6.99983 5.23259L2.58067 0.813425C2.46541 0.693984 2.32753 0.598693 2.17505 0.533111C2.02258 0.467528 1.85857 0.432969 1.6926 0.431449C1.52663 0.429929 1.36201 0.461479 1.20836 0.524257C1.05471 0.587036 0.915106 0.679786 0.797686 0.797096C0.680265 0.914406 0.587383 1.05393 0.52446 1.20752C0.461536 1.36111 0.429831 1.52569 0.431195 1.69167C0.432558 1.85764 0.466962 2.02168 0.532401 2.17422C0.597839 2.32675 0.693001 2.46473 0.812333 2.58009L5.23317 7.00009L0.813166 11.4193C0.578671 11.6538 0.446933 11.9718 0.446933 12.3034C0.446933 12.6351 0.578671 12.9531 0.813166 13.1876C1.04766 13.4221 1.36571 13.5538 1.69733 13.5538C2.02896 13.5538 2.347 13.4221 2.5815 13.1876L6.99983 8.76676V8.76759Z" fill="currentColor"/>
</svg>
