<svg viewBox="0 0 45 45" fill="none" xmlns="http://www.w3.org/2000/svg">
<g clip-path="url(#clip0_21_2176)">
<path d="M16.1339 29.7458L16.418 30.4399L16.1339 29.7458C16.0649 29.7741 15.9909 29.7885 15.9163 29.7881H15.9131L10.56 29.7881L10.5557 29.7881C10.481 29.7886 10.407 29.7743 10.3379 29.7461C10.2687 29.7178 10.2058 29.6763 10.1528 29.6237L9.62508 30.1567L10.1528 29.6237C10.0997 29.5712 10.0575 29.5087 10.0286 29.4399L9.33704 29.7301L10.0286 29.4399C9.99993 29.3715 9.9849 29.2982 9.98438 29.224C9.98526 28.9221 10.2366 28.6631 10.56 28.6631H15.9131C16.2352 28.6631 16.486 28.9208 16.4869 29.2241C16.4863 29.2981 16.4713 29.3714 16.4427 29.4397C16.4139 29.5085 16.3717 29.5709 16.3188 29.6235C16.2658 29.676 16.203 29.7176 16.1339 29.7458ZM17.2093 24.9263H17.205L10.59 24.9262L10.5868 24.9263C10.5122 24.9266 10.4382 24.9122 10.3692 24.8839C10.3001 24.8557 10.2373 24.8141 10.1844 24.7616C10.1314 24.709 10.0893 24.6466 10.0604 24.5778C10.0318 24.5095 10.0168 24.4362 10.0163 24.3621C10.0171 24.0588 10.268 23.8013 10.59 23.8013H17.2069C17.5282 23.8013 17.7798 24.0601 17.7806 24.3623C17.7801 24.4363 17.7651 24.5096 17.7364 24.578C17.7075 24.6468 17.6653 24.7093 17.6122 24.7619L18.1399 25.2948L17.6122 24.7619C17.5592 24.8144 17.4963 24.856 17.4271 24.8842C17.358 24.9124 17.2839 24.9267 17.2093 24.9263ZM28.4242 19.7587L28.4224 19.7587C27.5717 19.7596 26.7553 19.4234 26.1518 18.8239C25.5491 18.2253 25.2077 17.4127 25.2019 16.5634C25.2069 15.7152 25.5481 14.9036 26.1506 14.3064C26.7541 13.7084 27.5703 13.3745 28.4199 13.3781L28.4263 13.3781C28.8471 13.3763 29.2642 13.4574 29.6536 13.6168C30.0431 13.7762 30.3974 14.0107 30.6962 14.307C30.995 14.6033 31.2325 14.9555 31.3952 15.3436C31.5574 15.7305 31.6421 16.1455 31.6444 16.565C31.6386 17.4141 31.2972 18.2266 30.6945 18.825C30.091 19.4242 29.2747 19.76 28.4242 19.7587ZM31.2242 13.7744C31.593 14.14 31.8861 14.5747 32.0869 15.0536C32.2877 15.5326 32.3922 16.0463 32.3944 16.5656C32.3884 17.6144 31.9672 18.6182 31.223 19.3572C30.4787 20.0962 29.472 20.5103 28.4231 20.5087L31.2242 13.7744ZM34.3055 30.3206H34.3031L22.5431 30.3206L22.5417 30.3206C22.3742 30.321 22.2087 30.2849 22.0566 30.2149C21.9045 30.1449 21.7694 30.0427 21.6607 29.9153C21.552 29.7879 21.4723 29.6384 21.4272 29.4771C21.382 29.3159 21.3725 29.1468 21.3992 28.9815C21.9355 25.6754 23.6927 23.0834 25.8895 21.9546C26.6804 22.3275 27.5454 22.522 28.4231 22.522C29.3008 22.522 30.1659 22.3275 30.9568 21.9546C33.1538 23.0838 34.9125 25.6791 35.4471 28.9815C35.561 29.6863 35.017 30.3229 34.3055 30.3206ZM19.8568 20.0681H19.8525C16.6724 20.0681 14.7684 20.068 13.6796 20.0677C13.6624 20.0663 13.6486 20.0655 13.6447 20.0653L13.6344 20.0651L13.6225 20.065C13.5573 20.0646 12.8329 20.0644 10.5881 20.0644L10.5839 20.0644C10.5092 20.0648 10.4351 20.0505 10.366 20.0223L10.0827 20.7167L10.366 20.0223C10.2969 19.9941 10.234 19.9525 10.1809 19.9L9.65321 20.433L10.1809 19.9C10.1278 19.8474 10.0856 19.785 10.0567 19.7161L9.36516 20.0063L10.0567 19.7161C10.0281 19.6477 10.013 19.5744 10.0125 19.5003C10.0134 19.1984 10.2646 18.9395 10.588 18.9394C10.588 18.9394 10.5881 18.9394 10.5881 18.9394L19.8523 18.9412H19.8525C20.1762 18.9412 20.427 19.2004 20.4263 19.5037C20.426 19.5781 20.4111 19.6518 20.3824 19.7204C20.3536 19.7892 20.3116 19.8515 20.2587 19.904L20.7868 20.4366L20.2587 19.904C20.2058 19.9565 20.1431 19.998 20.0741 20.0261C20.0051 20.0543 19.9313 20.0686 19.8568 20.0681ZM10.5898 15.2044L10.5847 15.2044C10.5101 15.2049 10.4362 15.1907 10.3671 15.1626C10.298 15.1345 10.2352 15.093 10.1822 15.0405C10.1292 14.9881 10.0871 14.9257 10.0583 14.8569C10.0297 14.7884 10.0147 14.715 10.0144 14.6408C10.015 14.3386 10.2664 14.0794 10.59 14.0794H19.8525C20.1725 14.0794 20.4232 14.3348 20.4244 14.6397C20.423 14.7895 20.3625 14.9327 20.256 15.0381C20.149 15.144 20.0044 15.2032 19.8538 15.2025L19.8505 15.2025L10.5898 15.2044ZM5.295 34.4456H17.9285L25.2296 35.6737L25.2319 34.9237L25.2316 35.6737H25.2309C25.7555 35.675 26.2593 35.4684 26.632 35.0991C26.8214 34.9114 26.9692 34.6894 27.0691 34.4475H39.7069H40.4569V33.6975V10.0725V9.3225H39.7069H5.295H4.545V10.0725V33.6956V34.4456H5.295ZM19.7681 35.6719V34.9219L19.7679 35.6719C19.768 35.6719 19.768 35.6719 19.7681 35.6719ZM42.3525 34.4475H44.25V35.4919C44.25 36.2054 43.6625 36.7969 42.9262 36.7969H2.07375C1.3371 36.7969 0.75 36.2068 0.75 35.4919V34.4475H2.64937H3.39937V33.6975V10.0444C3.39937 9.03358 4.22607 8.20312 5.26312 8.20312H39.7388C40.7743 8.20312 41.6025 9.03393 41.6025 10.0444V33.6975V34.4475H42.3525Z" stroke="currentColor" stroke-width="1.5"/>
</g>
<defs>
<clipPath id="clip0_21_2176">
<rect width="45" height="45" fill="white"/>
</clipPath>
</defs>
</svg>
