<svg width="13" height="13" viewBox="0 0 13 13" fill="none" xmlns="http://www.w3.org/2000/svg">
<path d="M6.5 0.875H10.875C11.2065 0.875 11.5245 1.0067 11.7589 1.24112C11.9933 1.47554 12.125 1.79348 12.125 2.125V10.875C12.125 11.2065 11.9933 11.5245 11.7589 11.7589C11.5245 11.9933 11.2065 12.125 10.875 12.125H6.5M6.5 0.875H2.125C1.79348 0.875 1.47554 1.0067 1.24112 1.24112C1.0067 1.47554 0.875 1.79348 0.875 2.125V10.875C0.875 11.2065 1.0067 11.5245 1.24112 11.7589C1.47554 11.9933 1.79348 12.125 2.125 12.125H6.5M6.5 0.875V12.125" stroke="currentColor" stroke-linecap="round" stroke-linejoin="round"/>
</svg>
