<svg width="15" height="15" viewBox="0 0 15 15" fill="none" xmlns="http://www.w3.org/2000/svg">
<path fill-rule="evenodd" clip-rule="evenodd" d="M10 1.25C10.1658 1.25 10.3247 1.31585 10.4419 1.43306C10.5592 1.55027 10.625 1.70924 10.625 1.875H11.875C12.2065 1.875 12.5245 2.0067 12.7589 2.24112C12.9933 2.47554 13.125 2.79348 13.125 3.125V12.5C13.125 12.8315 12.9933 13.1495 12.7589 13.3839C12.5245 13.6183 12.2065 13.75 11.875 13.75H3.125C2.79348 13.75 2.47554 13.6183 2.24112 13.3839C2.0067 13.1495 1.875 12.8315 1.875 12.5V3.125C1.875 2.79348 2.0067 2.47554 2.24112 2.24112C2.47554 2.0067 2.79348 1.875 3.125 1.875H4.375C4.375 1.70924 4.44085 1.55027 4.55806 1.43306C4.67527 1.31585 4.83424 1.25 5 1.25C5.16576 1.25 5.32473 1.31585 5.44194 1.43306C5.55915 1.55027 5.625 1.70924 5.625 1.875H9.375C9.375 1.70924 9.44085 1.55027 9.55806 1.43306C9.67527 1.31585 9.83424 1.25 10 1.25ZM4.375 3.125C4.375 3.29076 4.44085 3.44973 4.55806 3.56694C4.67527 3.68415 4.83424 3.75 5 3.75C5.16576 3.75 5.32473 3.68415 5.44194 3.56694C5.55915 3.44973 5.625 3.29076 5.625 3.125H9.375C9.375 3.29076 9.44085 3.44973 9.55806 3.56694C9.67527 3.68415 9.83424 3.75 10 3.75C10.1658 3.75 10.3247 3.68415 10.4419 3.56694C10.5592 3.44973 10.625 3.29076 10.625 3.125H11.875V12.5H3.125V3.125H4.375ZM7.5 5.625C7.33424 5.625 7.17527 5.69085 7.05806 5.80806C6.94085 5.92527 6.875 6.08424 6.875 6.25C6.875 6.41576 6.94085 6.57473 7.05806 6.69194C7.17527 6.80915 7.33424 6.875 7.5 6.875C7.66576 6.875 7.82473 6.80915 7.94194 6.69194C8.05915 6.57473 8.125 6.41576 8.125 6.25C8.125 6.08424 8.05915 5.92527 7.94194 5.80806C7.82473 5.69085 7.66576 5.625 7.5 5.625ZM5.625 6.25C5.625 5.75272 5.82254 5.27581 6.17417 4.92417C6.52581 4.57254 7.00272 4.375 7.5 4.375C7.99728 4.375 8.47419 4.57254 8.82583 4.92417C9.17746 5.27581 9.375 5.75272 9.375 6.25C9.375 6.74728 9.17746 7.22419 8.82583 7.57583C8.47419 7.92746 7.99728 8.125 7.5 8.125C7.00272 8.125 6.52581 7.92746 6.17417 7.57583C5.82254 7.22419 5.625 6.74728 5.625 6.25ZM5.59313 10.8225C5.68813 10.5369 5.86812 10.3488 6.15687 10.2175C6.47062 10.075 6.91563 10 7.5 10C8.08437 10 8.52938 10.075 8.84313 10.2175C9.1325 10.3488 9.31187 10.5363 9.40687 10.8225C9.45926 10.9798 9.57198 11.1099 9.72025 11.1841C9.86852 11.2583 10.0402 11.2705 10.1975 11.2181C10.3548 11.1657 10.4849 11.053 10.5591 10.9047C10.6333 10.7565 10.6455 10.5848 10.5931 10.4275C10.3756 9.77563 9.93062 9.33875 9.36 9.07938C8.81437 8.83125 8.16563 8.75 7.5 8.75C6.83437 8.75 6.18563 8.83125 5.64 9.07938C5.07 9.33875 4.62438 9.77563 4.40688 10.4275C4.35449 10.5848 4.36675 10.7565 4.44094 10.9047C4.51514 11.053 4.64519 11.1657 4.8025 11.2181C4.95981 11.2705 5.13148 11.2583 5.27975 11.1841C5.42802 11.1099 5.54075 10.9798 5.59313 10.8225Z" fill="currentColor"/>
</svg>
