<svg xmlns="http://www.w3.org/2000/svg" xml:space="preserve" width="64" height="64" fill="currentColor" viewBox="0 0 416.991 416.991">
  <path d="M159.706 99.111c-23.159 0-42 18.841-42 42s18.841 42 42 42 42-18.841 42-42-18.84-42-42-42zm0 64c-12.131 0-22-9.869-22-22s9.869-22 22-22 22 9.869 22 22-9.869 22-22 22zM131.948 250.295c-23.159 0-42 18.841-42 42s18.841 42 42 42 42-18.841 42-42-18.841-42-42-42zm0 64c-12.131 0-22-9.869-22-22s9.869-22 22-22 22 9.869 22 22-9.869 22-22 22z"/>
  <path d="m416.97 206.596-.013-.831a9.999 9.999 0 0 0-9.494-9.864c-14.875-.751-28.007-9.639-34.27-23.193a9.998 9.998 0 0 0-14.842-3.978c-6.706 4.73-14.927 7.335-23.146 7.336a39.934 39.934 0 0 1-19.935-5.363c-13.458-7.77-21.242-22.803-19.83-38.299a9.998 9.998 0 0 0-2.888-7.977 10.026 10.026 0 0 0-7.977-2.889 39.953 39.953 0 0 1-3.614.164c-14.272 0-27.562-7.662-34.683-19.996-7.77-13.458-6.994-30.369 1.976-43.084a10 10 0 0 0-3.976-14.842c-13.548-6.262-22.434-19.387-23.189-34.254a10 10 0 0 0-9.858-9.492l-.816-.013C209.777.01 209.137 0 208.496 0 93.531 0 .001 93.531.001 208.496s93.53 208.496 208.495 208.496 208.495-93.531 208.495-208.496c0-.635-.01-1.267-.021-1.9zM69.977 106.111c0 12.131-9.869 22-22 22a21.92 21.92 0 0 1-9.011-1.954 189.01 189.01 0 0 1 23.448-36.643 21.934 21.934 0 0 1 7.563 16.597zm138.519 290.88C104.559 396.991 20 312.433 20 208.496c0-22.42 3.938-43.937 11.153-63.9a41.922 41.922 0 0 0 16.823 3.516c23.159 0 42-18.841 42-42 0-12.271-5.276-23.603-14.108-31.424 32.732-32.446 77.26-53.009 126.502-54.589a59.752 59.752 0 0 0 24.107 36.418c-8.064 17.495-7.341 38.179 2.48 55.19 9.771 16.925 27.278 27.985 46.567 29.748 1.761 19.188 12.729 36.747 29.744 46.57 9.114 5.262 19.466 8.043 29.936 8.042 8.82-.001 17.392-1.897 25.258-5.544a59.76 59.76 0 0 0 36.427 24.102 187.82 187.82 0 0 1-5.944 41.303 42 42 0 0 0-13.905-2.38c-23.159 0-42 18.841-42 42 0 13.791 6.848 26.454 17.66 34.193-34.601 41.091-86.402 67.25-144.204 67.25zm156.272-83.21c-5.935-4.016-9.724-10.811-9.724-18.234 0-12.131 9.869-22 22-22 2.725 0 5.356.501 7.825 1.444a188.135 188.135 0 0 1-20.101 38.79z"/>
  <path d="M246.475 206.259c-29.775 0-54 24.224-54 54s24.225 54 54 54 54-24.224 54-54-24.225-54-54-54zm0 88c-18.748 0-34-15.253-34-34 0-18.748 15.252-34 34-34 18.748 0 34 15.252 34 34 0 18.747-15.252 34-34 34z"/>
</svg>
