<svg width="24" height="25" viewBox="0 0 24 25" fill="none" xmlns="http://www.w3.org/2000/svg">
<path d="M4.63791 3.69278C4.37541 3.43496 3.95353 3.43496 3.69572 3.69746C3.43791 3.95528 3.43791 4.37715 3.69572 4.63496L20.3598 21.3084C20.5332 21.4818 20.7817 21.5381 21.002 21.4772C21.1145 21.449 21.2176 21.3881 21.302 21.3037C21.5598 21.0459 21.5598 20.624 21.302 20.3662L4.63791 3.69278ZM12.6957 16.7147C10.2113 16.8272 8.16759 14.7834 8.28478 12.3037C8.31291 11.7318 8.45353 11.1881 8.68791 10.6959L6.18478 8.18809C4.88634 9.19122 3.58791 10.4803 2.19572 11.999C1.93791 12.285 1.93322 12.7115 2.19103 12.9975C5.23322 16.3584 7.91447 19.2506 12.4895 19.2506C13.8817 19.2506 15.166 18.9037 16.3473 18.3506L14.3082 16.3115C13.8113 16.5459 13.2676 16.6865 12.6957 16.7147ZM22.802 12.9693C23.0504 12.6975 23.0645 12.285 22.8254 11.999C20.3738 9.02247 16.9754 5.75059 12.4895 5.75059C11.1254 5.75059 9.86447 6.05997 8.64572 6.64122L10.6942 8.68965C11.1863 8.45528 11.7301 8.30997 12.302 8.28653C14.7863 8.17403 16.8301 10.2178 16.7129 12.6975C16.6848 13.2693 16.5442 13.8131 16.3098 14.3053L18.8176 16.8131C20.3645 15.6272 21.691 14.1928 22.802 12.9693Z" fill="currentColor"/>
<path d="M9.50851 12.7297C9.62101 14.1969 10.8023 15.3781 12.2695 15.4906C12.6538 15.5187 13.0241 15.4766 13.3663 15.3687L9.6257 11.6281C9.52258 11.975 9.48039 12.3453 9.50851 12.7297ZM15.4991 12.5C15.4991 12.4391 15.4945 12.3781 15.4945 12.3172C15.232 12.4344 14.946 12.5 14.6413 12.5C14.5898 12.5 14.5429 12.5 14.496 12.4953L15.3679 13.3719C15.4523 13.0953 15.4991 12.8 15.4991 12.5ZM12.4991 10.2969C12.4991 10.0156 12.5507 9.74844 12.6445 9.50469C12.5976 9.50469 12.5507 9.5 12.4991 9.5C12.1991 9.5 11.9085 9.54688 11.632 9.63125L12.5085 10.5078C12.5038 10.4375 12.4991 10.3672 12.4991 10.2969Z" fill="currentColor"/>
</svg>
