<svg width="45" height="45" viewBox="0 0 45 45" fill="none" xmlns="http://www.w3.org/2000/svg">
<path d="M38.5948 31.8098L38.5948 31.8098C38.58 31.797 38.5687 31.7922 38.5619 31.7901C38.5546 31.7879 38.5476 31.7873 38.5404 31.7882C38.5289 31.7895 38.5029 31.7963 38.4744 31.8349L38.4744 31.8349C38.049 32.4093 37.5893 32.9687 37.1079 33.4984L37.1078 33.4985C37.077 33.5325 37.0532 33.587 37.0537 33.6551C37.0542 33.7232 37.0788 33.7768 37.1095 33.8095L38.5948 31.8098ZM38.5948 31.8098C38.6243 31.8354 38.653 31.8822 38.6599 31.9493C38.6667 32.0164 38.6486 32.0764 38.6177 32.118C38.1859 32.7011 37.7188 33.2697 37.23 33.8076L38.5948 31.8098ZM37.1457 33.8366C37.1542 33.8403 37.1619 33.8416 37.1688 33.8416C37.1758 33.8416 37.1838 33.8402 37.1927 33.8363C37.2012 33.8325 37.2143 33.8248 37.2299 33.8077L37.1457 33.8366ZM37.1457 33.8366C37.1375 33.8331 37.1248 33.8257 37.1096 33.8096L37.1457 33.8366Z" fill="black" stroke="black" stroke-width="1.5625"/>
<path d="M35.4121 36.61C35.8066 36.2864 35.884 35.6781 35.585 35.2511C35.2859 34.8243 34.7235 34.7404 34.329 35.0642C30.9391 37.8441 26.8311 39.4553 22.4493 39.7235C21.955 39.7538 21.577 40.2118 21.605 40.7466M35.4121 36.61L34.9167 36.0058M35.4121 36.61C31.7369 39.6237 27.2895 41.37 22.5506 41.6601C22.5334 41.6612 22.5162 41.6617 22.4992 41.6617C22.0272 41.6617 21.632 41.2627 21.605 40.7466M35.4121 36.61L34.9166 36.0059C34.9166 36.0059 34.9167 36.0059 34.9167 36.0058M34.9167 36.0058C34.9456 35.9821 34.9752 35.9373 34.9836 35.8707C34.9921 35.8041 34.9756 35.7429 34.9451 35.6993M34.9167 36.0058C31.3684 38.9155 27.0776 40.6003 22.5028 40.8803L22.5028 40.8803L22.4992 40.8806L22.4989 40.8806L22.4992 40.8805C22.4899 40.8805 22.4694 40.8776 22.4428 40.8505C22.4158 40.823 22.3888 40.7746 22.3852 40.7058L21.605 40.7466M34.9451 35.6993C34.9451 35.6993 34.9452 35.6994 34.9452 35.6994L35.585 35.2512L34.9451 35.6993ZM34.9451 35.6993C34.9166 35.6588 34.8897 35.6507 34.8777 35.6489C34.8704 35.6478 34.8634 35.6482 34.8565 35.6501C34.8501 35.6519 34.8392 35.6561 34.8246 35.6681L34.8244 35.6683C31.3073 38.5525 27.0426 40.2251 22.4971 40.5033L22.497 40.5033C22.4855 40.504 22.4618 40.5093 22.4339 40.5431C22.4051 40.5779 22.3814 40.6343 22.3852 40.7058L21.605 40.7466" fill="black" stroke="black" stroke-width="1.5625"/>
<mask id="path-3-inside-1_21_2173" fill="white">
<path d="M44.3632 17.1701L44.3631 17.17C43.8519 15.0654 43.0391 13.0492 41.9469 11.1772C40.3943 8.51566 38.3491 6.23572 35.8686 4.4006C31.9768 1.5217 27.354 0 22.5 0C21.1423 0 19.779 0.122759 18.448 0.364855C14.6754 1.05101 11.1143 2.7125 8.15001 5.16978C3.79274 8.78171 0.972949 13.8444 0.210059 19.4254C0.0706641 20.4448 0 21.4792 0 22.5C0 26.5058 1.06603 30.439 3.08276 33.8743C5.03297 37.1963 7.82121 39.9812 11.1461 41.9281C11.1464 41.9283 11.1466 41.9284 11.1469 41.9285C13.0334 43.0331 15.0653 43.8534 17.1863 44.3671C18.9206 44.7871 20.7084 45 22.5 45C26.8514 45 31.0736 43.7557 34.7101 41.4017C38.2626 39.1021 41.0879 35.8656 42.8807 32.0424C44.287 29.0432 45 25.8327 45 22.5C45 20.7027 44.7857 18.9095 44.3632 17.1701ZM36.2243 7.10445C37.348 8.0908 38.3541 9.1886 39.2352 10.3893L37.4631 9.94902C36.8948 9.80782 36.3109 9.95729 35.8611 10.3587C35.4113 10.7601 35.1649 11.3521 35.1852 11.9828C35.186 12.0088 35.174 12.034 35.1536 12.0483L33.852 12.9681C33.8301 12.9835 33.8022 12.9844 33.7795 12.9704L31.946 11.8406C31.7828 11.74 31.6987 11.5317 31.7416 11.3338L32.1542 9.42851C32.1984 9.22445 32.3645 9.07801 32.5581 9.07221L34.1115 9.02543C35.1534 8.99405 36.0207 8.17087 36.2243 7.10445ZM11.1371 37.5354L10.875 39.5139C5.2418 35.7062 1.79279 29.3033 1.79279 22.5C1.79279 21.8981 1.81986 21.291 1.87356 20.6855L3.07327 20.8952C3.37535 20.9481 3.68402 20.9749 3.9905 20.9749H4.59817C5.44052 20.9749 6.27715 21.2739 6.95382 21.8166L7.87456 22.5551C7.95331 22.6182 8.00464 22.715 8.0151 22.8206L8.1399 24.0698C8.16003 24.2718 8.03057 24.4554 7.84503 24.4875C6.79816 24.6686 6.02174 25.6701 6.03888 26.8169L6.10444 31.2142C6.11191 31.7137 6.26388 32.1878 6.54407 32.5849L8.00508 34.6559C8.6944 35.6332 9.62657 36.3615 10.7008 36.7623C10.9982 36.8733 11.1817 37.1984 11.1371 37.5354ZM16.9122 42.3015C15.3957 41.8805 13.9335 41.2879 12.5509 40.5341L12.9117 37.8108C13.0782 36.5544 12.3941 35.3423 11.2852 34.9286C10.546 34.6528 9.90457 34.1515 9.43022 33.4791L7.96931 31.4081C7.92325 31.3429 7.89829 31.2649 7.89706 31.1829L7.83149 26.7857C7.82868 26.5971 7.95639 26.4325 8.12839 26.4028C9.25726 26.2074 10.0453 25.091 9.92241 23.8612L9.79761 22.612C9.73353 21.9701 9.42179 21.3814 8.94234 20.9969L8.0216 20.2584C7.03811 19.4697 5.82231 19.0352 4.59817 19.0352H3.9905C3.77956 19.0352 3.5673 19.0168 3.35936 18.9804L2.13486 18.7663C3.00401 14.0602 5.5031 9.80734 9.24029 6.70935C11.8745 4.52574 15.0229 3.02325 18.3678 2.34992C18.8752 2.80663 19.2679 3.39238 19.513 4.06256L19.5638 4.20168C19.6911 4.54961 19.7758 4.91456 19.8155 5.28635L19.8606 5.7095C19.9409 6.46212 19.8345 7.22664 19.553 7.92031L19.0656 9.12175C18.7465 9.90794 18.2229 10.5655 17.5513 11.0229L16.944 11.4366C16.3287 11.8556 15.9689 12.6042 16.0051 13.3899L16.0872 15.1649C16.0914 15.2555 16.0524 15.3157 16.019 15.3503C15.9856 15.3849 15.9284 15.4239 15.8447 15.4157C15.7708 15.4081 15.7057 15.3613 15.6705 15.2905L14.9245 13.7918C14.6663 13.2727 14.2171 12.8842 13.6922 12.7257L11.0559 11.9296C10.363 11.7204 9.62068 11.7826 8.9659 12.1046L8.3381 12.4133C7.01728 13.0629 6.29543 14.6445 6.62168 16.1738C6.75079 16.7794 7.03389 17.332 7.44003 17.7714L9.15293 19.6247C9.24952 19.729 9.34207 19.8403 9.42829 19.9554L10.6026 21.5223C11.1212 22.2143 11.8899 22.6107 12.7131 22.6106C12.7159 22.6106 12.7187 22.6106 12.7215 22.6106L15.9208 22.6001C15.9217 22.6001 15.9226 22.6001 15.9237 22.6001C16.2512 22.6001 16.5569 22.79 16.722 23.0963C17.1061 23.8087 17.754 24.3166 18.4997 24.4895L19.6984 24.7673C19.962 24.8285 20.1872 25.0103 20.3162 25.2664L20.8951 26.4147C21.1272 26.8751 21.4784 27.244 21.9105 27.4816L24.6313 28.9775C24.8551 29.1005 24.9844 29.3641 24.9534 29.6336C24.9354 29.7897 24.8655 29.9331 24.7565 30.0373L23.723 31.0264C23.4316 31.3052 23.2054 31.661 23.0687 32.0551L22.8434 32.7051C22.7748 32.9032 22.6319 33.0632 22.4512 33.1443L21.3504 33.6381C20.4128 34.0586 19.8068 35.0401 19.8068 36.1384C19.8068 36.2618 19.7787 36.3851 19.7257 36.4945L16.9122 42.3015ZM22.5 43.0604C21.2355 43.0604 19.9734 42.946 18.7338 42.7196L21.3136 37.395C21.5007 37.0089 21.5996 36.5743 21.5996 36.1383C21.5996 35.8271 21.7714 35.5489 22.0371 35.4296L23.138 34.9358C23.7756 34.6497 24.28 34.0848 24.5222 33.386L24.7475 32.7363C24.7816 32.6378 24.8382 32.5489 24.9109 32.4792L25.9444 31.4901C26.3804 31.0729 26.6601 30.4989 26.7324 29.8743C26.8571 28.7961 26.3392 27.7408 25.4437 27.2483L22.7228 25.7525C22.6149 25.6931 22.5271 25.6009 22.4692 25.4858L21.8902 24.3375C21.5109 23.5849 20.8489 23.0504 20.0741 22.8707L18.8755 22.5929C18.6218 22.5341 18.4014 22.3612 18.2707 22.1189C17.7853 21.2187 16.8865 20.6605 15.9237 20.6605C15.9209 20.6605 15.9181 20.6605 15.9153 20.6605L12.7161 20.671C12.7151 20.671 12.7143 20.671 12.7132 20.671C12.4332 20.671 12.1716 20.5362 11.9952 20.3008L10.8208 18.7339C10.6955 18.5666 10.5608 18.4048 10.4205 18.2531L8.70768 16.4C8.53936 16.218 8.42212 15.989 8.36859 15.738C8.23342 15.1041 8.5326 14.4485 9.07998 14.1793L9.70778 13.8706C9.97928 13.7372 10.2869 13.7113 10.5741 13.798L13.2105 14.5941C13.2682 14.6116 13.3176 14.6543 13.3461 14.7114L14.0921 16.2102C14.4119 16.8526 15.0035 17.2774 15.6749 17.3466C16.2576 17.4068 16.8348 17.1901 17.2581 16.7524C17.6814 16.3147 17.9073 15.7007 17.8781 15.068L17.796 13.293C17.7921 13.2065 17.8316 13.1241 17.8994 13.078L18.5067 12.6643C19.4827 11.9994 20.2437 11.0441 20.7074 9.90148L21.1948 8.70003C21.6039 7.6919 21.7585 6.58098 21.6418 5.48709L21.5967 5.06394C21.5391 4.52384 21.416 3.99353 21.231 3.48785L21.1801 3.34864C21.0083 2.87909 20.7859 2.43855 20.5196 2.03318H20.5208C21.1785 1.971 21.84 1.93971 22.5001 1.93971C26.8313 1.93971 30.9596 3.24604 34.4702 5.72252L34.4769 6.62102C34.4787 6.87072 34.2925 7.07953 34.0617 7.08657L32.5085 7.13335C31.5018 7.16359 30.6383 7.92563 30.4088 8.98635L29.9962 10.8914C29.7735 11.9199 30.2105 13.0035 31.0588 13.5262L32.8923 14.6559C33.18 14.8331 33.4976 14.9214 33.8144 14.9214C34.1687 14.9214 34.5222 14.8111 34.8323 14.5921L36.1339 13.6723C36.6764 13.2891 36.9993 12.6159 36.9768 11.9155C36.9765 11.9055 36.9756 11.8784 37.002 11.8549C37.0288 11.8312 37.0528 11.8375 37.0618 11.8396L39.0722 12.3391C39.1221 12.3515 39.1732 12.3618 39.2245 12.3697L40.6457 12.5904C41.2638 13.7035 41.7749 14.8688 42.1736 16.0732L40.785 15.7101C40.7297 15.6956 40.6731 15.6831 40.6167 15.6734L39.1004 15.4088C37.454 15.1216 35.7797 15.7265 34.6232 17.0278L34.395 17.2845C33.7186 18.0456 33.261 18.9954 33.0715 20.0311L32.4933 23.1923C32.2917 24.2943 32.4037 25.4215 32.817 26.452C33.5387 28.2512 35.1058 29.507 36.9067 29.7293L37.1876 29.7641C37.9577 29.8593 38.7506 29.76 39.4802 29.4772L40.4364 29.1066C40.6067 29.0405 40.798 29.0984 40.9124 29.2511L41.0379 29.4188C41.0965 29.4971 41.1302 29.5957 41.133 29.6962L41.1783 31.382C37.7451 38.4842 30.4403 43.0604 22.5 43.0604ZM42.4106 28.1704L42.3061 28.0306C41.8765 27.4565 41.2363 27.1402 40.5788 27.1402C40.3289 27.1402 40.0764 27.1859 39.832 27.2806L38.8759 27.6511C38.4033 27.8343 37.8896 27.8986 37.3911 27.8369L37.1103 27.8022C35.944 27.6581 34.9291 26.8448 34.4618 25.6798C34.194 25.0125 34.1215 24.2825 34.252 23.5688L34.8302 20.4076C34.9529 19.7369 35.2492 19.1218 35.6874 18.629L35.9155 18.3723C36.6645 17.5297 37.7486 17.1377 38.815 17.3239L40.3312 17.5884C40.3419 17.5903 40.3527 17.5926 40.3635 17.5955L42.7563 18.2211C43.0557 19.6236 43.2071 21.0603 43.2071 22.5C43.2072 24.4424 42.9401 26.3397 42.4106 28.1704Z"/>
</mask>
<path d="M44.3632 17.1701L44.3631 17.17C43.8519 15.0654 43.0391 13.0492 41.9469 11.1772C40.3943 8.51566 38.3491 6.23572 35.8686 4.4006C31.9768 1.5217 27.354 0 22.5 0C21.1423 0 19.779 0.122759 18.448 0.364855C14.6754 1.05101 11.1143 2.7125 8.15001 5.16978C3.79274 8.78171 0.972949 13.8444 0.210059 19.4254C0.0706641 20.4448 0 21.4792 0 22.5C0 26.5058 1.06603 30.439 3.08276 33.8743C5.03297 37.1963 7.82121 39.9812 11.1461 41.9281C11.1464 41.9283 11.1466 41.9284 11.1469 41.9285C13.0334 43.0331 15.0653 43.8534 17.1863 44.3671C18.9206 44.7871 20.7084 45 22.5 45C26.8514 45 31.0736 43.7557 34.7101 41.4017C38.2626 39.1021 41.0879 35.8656 42.8807 32.0424C44.287 29.0432 45 25.8327 45 22.5C45 20.7027 44.7857 18.9095 44.3632 17.1701ZM36.2243 7.10445C37.348 8.0908 38.3541 9.1886 39.2352 10.3893L37.4631 9.94902C36.8948 9.80782 36.3109 9.95729 35.8611 10.3587C35.4113 10.7601 35.1649 11.3521 35.1852 11.9828C35.186 12.0088 35.174 12.034 35.1536 12.0483L33.852 12.9681C33.8301 12.9835 33.8022 12.9844 33.7795 12.9704L31.946 11.8406C31.7828 11.74 31.6987 11.5317 31.7416 11.3338L32.1542 9.42851C32.1984 9.22445 32.3645 9.07801 32.5581 9.07221L34.1115 9.02543C35.1534 8.99405 36.0207 8.17087 36.2243 7.10445ZM11.1371 37.5354L10.875 39.5139C5.2418 35.7062 1.79279 29.3033 1.79279 22.5C1.79279 21.8981 1.81986 21.291 1.87356 20.6855L3.07327 20.8952C3.37535 20.9481 3.68402 20.9749 3.9905 20.9749H4.59817C5.44052 20.9749 6.27715 21.2739 6.95382 21.8166L7.87456 22.5551C7.95331 22.6182 8.00464 22.715 8.0151 22.8206L8.1399 24.0698C8.16003 24.2718 8.03057 24.4554 7.84503 24.4875C6.79816 24.6686 6.02174 25.6701 6.03888 26.8169L6.10444 31.2142C6.11191 31.7137 6.26388 32.1878 6.54407 32.5849L8.00508 34.6559C8.6944 35.6332 9.62657 36.3615 10.7008 36.7623C10.9982 36.8733 11.1817 37.1984 11.1371 37.5354ZM16.9122 42.3015C15.3957 41.8805 13.9335 41.2879 12.5509 40.5341L12.9117 37.8108C13.0782 36.5544 12.3941 35.3423 11.2852 34.9286C10.546 34.6528 9.90457 34.1515 9.43022 33.4791L7.96931 31.4081C7.92325 31.3429 7.89829 31.2649 7.89706 31.1829L7.83149 26.7857C7.82868 26.5971 7.95639 26.4325 8.12839 26.4028C9.25726 26.2074 10.0453 25.091 9.92241 23.8612L9.79761 22.612C9.73353 21.9701 9.42179 21.3814 8.94234 20.9969L8.0216 20.2584C7.03811 19.4697 5.82231 19.0352 4.59817 19.0352H3.9905C3.77956 19.0352 3.5673 19.0168 3.35936 18.9804L2.13486 18.7663C3.00401 14.0602 5.5031 9.80734 9.24029 6.70935C11.8745 4.52574 15.0229 3.02325 18.3678 2.34992C18.8752 2.80663 19.2679 3.39238 19.513 4.06256L19.5638 4.20168C19.6911 4.54961 19.7758 4.91456 19.8155 5.28635L19.8606 5.7095C19.9409 6.46212 19.8345 7.22664 19.553 7.92031L19.0656 9.12175C18.7465 9.90794 18.2229 10.5655 17.5513 11.0229L16.944 11.4366C16.3287 11.8556 15.9689 12.6042 16.0051 13.3899L16.0872 15.1649C16.0914 15.2555 16.0524 15.3157 16.019 15.3503C15.9856 15.3849 15.9284 15.4239 15.8447 15.4157C15.7708 15.4081 15.7057 15.3613 15.6705 15.2905L14.9245 13.7918C14.6663 13.2727 14.2171 12.8842 13.6922 12.7257L11.0559 11.9296C10.363 11.7204 9.62068 11.7826 8.9659 12.1046L8.3381 12.4133C7.01728 13.0629 6.29543 14.6445 6.62168 16.1738C6.75079 16.7794 7.03389 17.332 7.44003 17.7714L9.15293 19.6247C9.24952 19.729 9.34207 19.8403 9.42829 19.9554L10.6026 21.5223C11.1212 22.2143 11.8899 22.6107 12.7131 22.6106C12.7159 22.6106 12.7187 22.6106 12.7215 22.6106L15.9208 22.6001C15.9217 22.6001 15.9226 22.6001 15.9237 22.6001C16.2512 22.6001 16.5569 22.79 16.722 23.0963C17.1061 23.8087 17.754 24.3166 18.4997 24.4895L19.6984 24.7673C19.962 24.8285 20.1872 25.0103 20.3162 25.2664L20.8951 26.4147C21.1272 26.8751 21.4784 27.244 21.9105 27.4816L24.6313 28.9775C24.8551 29.1005 24.9844 29.3641 24.9534 29.6336C24.9354 29.7897 24.8655 29.9331 24.7565 30.0373L23.723 31.0264C23.4316 31.3052 23.2054 31.661 23.0687 32.0551L22.8434 32.7051C22.7748 32.9032 22.6319 33.0632 22.4512 33.1443L21.3504 33.6381C20.4128 34.0586 19.8068 35.0401 19.8068 36.1384C19.8068 36.2618 19.7787 36.3851 19.7257 36.4945L16.9122 42.3015ZM22.5 43.0604C21.2355 43.0604 19.9734 42.946 18.7338 42.7196L21.3136 37.395C21.5007 37.0089 21.5996 36.5743 21.5996 36.1383C21.5996 35.8271 21.7714 35.5489 22.0371 35.4296L23.138 34.9358C23.7756 34.6497 24.28 34.0848 24.5222 33.386L24.7475 32.7363C24.7816 32.6378 24.8382 32.5489 24.9109 32.4792L25.9444 31.4901C26.3804 31.0729 26.6601 30.4989 26.7324 29.8743C26.8571 28.7961 26.3392 27.7408 25.4437 27.2483L22.7228 25.7525C22.6149 25.6931 22.5271 25.6009 22.4692 25.4858L21.8902 24.3375C21.5109 23.5849 20.8489 23.0504 20.0741 22.8707L18.8755 22.5929C18.6218 22.5341 18.4014 22.3612 18.2707 22.1189C17.7853 21.2187 16.8865 20.6605 15.9237 20.6605C15.9209 20.6605 15.9181 20.6605 15.9153 20.6605L12.7161 20.671C12.7151 20.671 12.7143 20.671 12.7132 20.671C12.4332 20.671 12.1716 20.5362 11.9952 20.3008L10.8208 18.7339C10.6955 18.5666 10.5608 18.4048 10.4205 18.2531L8.70768 16.4C8.53936 16.218 8.42212 15.989 8.36859 15.738C8.23342 15.1041 8.5326 14.4485 9.07998 14.1793L9.70778 13.8706C9.97928 13.7372 10.2869 13.7113 10.5741 13.798L13.2105 14.5941C13.2682 14.6116 13.3176 14.6543 13.3461 14.7114L14.0921 16.2102C14.4119 16.8526 15.0035 17.2774 15.6749 17.3466C16.2576 17.4068 16.8348 17.1901 17.2581 16.7524C17.6814 16.3147 17.9073 15.7007 17.8781 15.068L17.796 13.293C17.7921 13.2065 17.8316 13.1241 17.8994 13.078L18.5067 12.6643C19.4827 11.9994 20.2437 11.0441 20.7074 9.90148L21.1948 8.70003C21.6039 7.6919 21.7585 6.58098 21.6418 5.48709L21.5967 5.06394C21.5391 4.52384 21.416 3.99353 21.231 3.48785L21.1801 3.34864C21.0083 2.87909 20.7859 2.43855 20.5196 2.03318H20.5208C21.1785 1.971 21.84 1.93971 22.5001 1.93971C26.8313 1.93971 30.9596 3.24604 34.4702 5.72252L34.4769 6.62102C34.4787 6.87072 34.2925 7.07953 34.0617 7.08657L32.5085 7.13335C31.5018 7.16359 30.6383 7.92563 30.4088 8.98635L29.9962 10.8914C29.7735 11.9199 30.2105 13.0035 31.0588 13.5262L32.8923 14.6559C33.18 14.8331 33.4976 14.9214 33.8144 14.9214C34.1687 14.9214 34.5222 14.8111 34.8323 14.5921L36.1339 13.6723C36.6764 13.2891 36.9993 12.6159 36.9768 11.9155C36.9765 11.9055 36.9756 11.8784 37.002 11.8549C37.0288 11.8312 37.0528 11.8375 37.0618 11.8396L39.0722 12.3391C39.1221 12.3515 39.1732 12.3618 39.2245 12.3697L40.6457 12.5904C41.2638 13.7035 41.7749 14.8688 42.1736 16.0732L40.785 15.7101C40.7297 15.6956 40.6731 15.6831 40.6167 15.6734L39.1004 15.4088C37.454 15.1216 35.7797 15.7265 34.6232 17.0278L34.395 17.2845C33.7186 18.0456 33.261 18.9954 33.0715 20.0311L32.4933 23.1923C32.2917 24.2943 32.4037 25.4215 32.817 26.452C33.5387 28.2512 35.1058 29.507 36.9067 29.7293L37.1876 29.7641C37.9577 29.8593 38.7506 29.76 39.4802 29.4772L40.4364 29.1066C40.6067 29.0405 40.798 29.0984 40.9124 29.2511L41.0379 29.4188C41.0965 29.4971 41.1302 29.5957 41.133 29.6962L41.1783 31.382C37.7451 38.4842 30.4403 43.0604 22.5 43.0604ZM42.4106 28.1704L42.3061 28.0306C41.8765 27.4565 41.2363 27.1402 40.5788 27.1402C40.3289 27.1402 40.0764 27.1859 39.832 27.2806L38.8759 27.6511C38.4033 27.8343 37.8896 27.8986 37.3911 27.8369L37.1103 27.8022C35.944 27.6581 34.9291 26.8448 34.4618 25.6798C34.194 25.0125 34.1215 24.2825 34.252 23.5688L34.8302 20.4076C34.9529 19.7369 35.2492 19.1218 35.6874 18.629L35.9155 18.3723C36.6645 17.5297 37.7486 17.1377 38.815 17.3239L40.3312 17.5884C40.3419 17.5903 40.3527 17.5926 40.3635 17.5955L42.7563 18.2211C43.0557 19.6236 43.2071 21.0603 43.2071 22.5C43.2072 24.4424 42.9401 26.3397 42.4106 28.1704Z" fill="black" stroke="black" stroke-width="3.125" mask="url(#path-3-inside-1_21_2173)"/>
</svg>
