<svg width="25" height="25" viewBox="0 0 25 25" fill="none" xmlns="http://www.w3.org/2000/svg">
<g clip-path="url(#clip0_779_32383)">
<path d="M12.5183 24.5C19.1558 24.5 24.5365 19.1274 24.5365 12.5C24.5365 5.87258 19.1558 0.5 12.5183 0.5C5.88077 0.5 0.5 5.87258 0.5 12.5C0.5 19.1274 5.88077 24.5 12.5183 24.5Z" fill="#E0E0E0"/>
<path d="M12.5182 24.1353C19.0549 24.1353 24.3539 18.8443 24.3539 12.3176C24.3539 5.79093 19.0549 0.5 12.5182 0.5C5.98161 0.5 0.682617 5.79093 0.682617 12.3176C0.682617 18.8443 5.98161 24.1353 12.5182 24.1353Z" fill="white"/>
<mask id="mask0_779_32383" style="mask-type:luminance" maskUnits="userSpaceOnUse" x="4" y="4" width="17" height="17">
<path d="M20.1897 10.9325H12.7011V14.0328H17.0116C16.6098 16.0024 14.9294 17.1331 12.7011 17.1331C10.0709 17.1331 7.95222 15.0176 7.95222 12.3915C7.95222 9.76536 10.0709 7.64986 12.7011 7.64986C13.8335 7.64986 14.8563 8.05109 15.66 8.70762L17.9979 6.37327C16.5732 5.13314 14.7467 4.36719 12.7011 4.36719C8.24446 4.36719 4.66455 7.94166 4.66455 12.3915C4.66455 16.8414 8.24446 20.4158 12.7011 20.4158C16.7193 20.4158 20.3723 17.4979 20.3723 12.3915C20.3723 11.9173 20.2993 11.4067 20.1897 10.9325Z" fill="white"/>
</mask>
<g mask="url(#mask0_779_32383)">
<path d="M3.93408 17.1337V7.65039L10.1441 12.392L3.93408 17.1337Z" fill="#FBBC05"/>
</g>
<mask id="mask1_779_32383" style="mask-type:luminance" maskUnits="userSpaceOnUse" x="4" y="4" width="17" height="17">
<path d="M20.1897 10.9325H12.7011V14.0328H17.0116C16.6098 16.0024 14.9294 17.1331 12.7011 17.1331C10.0709 17.1331 7.95222 15.0176 7.95222 12.3915C7.95222 9.76536 10.0709 7.64986 12.7011 7.64986C13.8335 7.64986 14.8563 8.05109 15.66 8.70762L17.9979 6.37327C16.5732 5.13314 14.7467 4.36719 12.7011 4.36719C8.24446 4.36719 4.66455 7.94166 4.66455 12.3915C4.66455 16.8414 8.24446 20.4158 12.7011 20.4158C16.7193 20.4158 20.3723 17.4979 20.3723 12.3915C20.3723 11.9173 20.2993 11.4067 20.1897 10.9325Z" fill="white"/>
</mask>
<g mask="url(#mask1_779_32383)">
<path d="M3.93408 7.65083L10.1441 12.3925L12.7012 10.1676L21.4683 8.74506V3.63867H3.93408V7.65083Z" fill="#EA4335"/>
</g>
<mask id="mask2_779_32383" style="mask-type:luminance" maskUnits="userSpaceOnUse" x="4" y="4" width="17" height="17">
<path d="M20.1897 10.9325H12.7011V14.0328H17.0116C16.6098 16.0024 14.9294 17.1331 12.7011 17.1331C10.0709 17.1331 7.95222 15.0176 7.95222 12.3915C7.95222 9.76536 10.0709 7.64986 12.7011 7.64986C13.8335 7.64986 14.8563 8.05109 15.66 8.70762L17.9979 6.37327C16.5732 5.13314 14.7467 4.36719 12.7011 4.36719C8.24446 4.36719 4.66455 7.94166 4.66455 12.3915C4.66455 16.8414 8.24446 20.4158 12.7011 20.4158C16.7193 20.4158 20.3723 17.4979 20.3723 12.3915C20.3723 11.9173 20.2993 11.4067 20.1897 10.9325Z" fill="white"/>
</mask>
<g mask="url(#mask2_779_32383)">
<path d="M3.93408 17.1341L14.893 8.74506L17.7788 9.1098L21.4683 3.63867V21.1463H3.93408V17.1341Z" fill="#34A853"/>
</g>
<mask id="mask3_779_32383" style="mask-type:luminance" maskUnits="userSpaceOnUse" x="4" y="4" width="17" height="17">
<path d="M20.1897 10.9325H12.7011V14.0328H17.0116C16.6098 16.0024 14.9294 17.1331 12.7011 17.1331C10.0709 17.1331 7.95222 15.0176 7.95222 12.3915C7.95222 9.76536 10.0709 7.64986 12.7011 7.64986C13.8335 7.64986 14.8563 8.05109 15.66 8.70762L17.9979 6.37327C16.5732 5.13314 14.7467 4.36719 12.7011 4.36719C8.24446 4.36719 4.66455 7.94166 4.66455 12.3915C4.66455 16.8414 8.24446 20.4158 12.7011 20.4158C16.7193 20.4158 20.3723 17.4979 20.3723 12.3915C20.3723 11.9173 20.2993 11.4067 20.1897 10.9325Z" fill="white"/>
</mask>
<g mask="url(#mask3_779_32383)">
<path d="M21.468 21.1458L10.1438 12.392L8.68262 11.2978L21.468 7.65039V21.1458Z" fill="#4285F4"/>
</g>
</g>
<defs>
<clipPath id="clip0_779_32383">
<rect width="24" height="24" fill="white" transform="translate(0.5 0.5)"/>
</clipPath>
</defs>
</svg>
