<svg width="45" height="45" viewBox="0 0 45 45" fill="none" xmlns="http://www.w3.org/2000/svg">
<path d="M20.625 31.875L24.375 35.625C24.7443 35.9943 25.1828 36.2873 25.6654 36.4872C26.148 36.6871 26.6652 36.79 27.1875 36.79C27.7098 36.79 28.227 36.6871 28.7096 36.4872C29.1922 36.2873 29.6307 35.9943 30 35.625C30.3693 35.2557 30.6623 34.8172 30.8622 34.3346C31.0621 33.852 31.165 33.3348 31.165 32.8125C31.165 32.2902 31.0621 31.773 30.8622 31.2904C30.6623 30.8078 30.3693 30.3693 30 30" stroke="black" stroke-width="2" stroke-linecap="round" stroke-linejoin="round"/>
<path d="M26.2499 26.25L30.9374 30.9375C31.6834 31.6834 32.695 32.1025 33.7499 32.1025C34.8048 32.1025 35.8165 31.6834 36.5624 30.9375C37.3084 30.1916 37.7274 29.1799 37.7274 28.125C37.7274 27.0701 37.3084 26.0584 36.5624 25.3125L29.2874 18.0375C28.2327 16.9841 26.8031 16.3924 25.3124 16.3924C23.8218 16.3924 22.3921 16.9841 21.3374 18.0375L19.6874 19.6875C18.9415 20.4334 17.9298 20.8525 16.8749 20.8525C15.82 20.8525 14.8084 20.4334 14.0624 19.6875C13.3165 18.9416 12.8975 17.9299 12.8975 16.875C12.8975 15.8201 13.3165 14.8084 14.0624 14.0625L19.3312 8.79375C21.0416 7.08777 23.2722 6.00103 25.6699 5.70557C28.0675 5.41011 30.4952 5.92281 32.5687 7.1625L33.4499 7.6875C34.2483 8.16935 35.1975 8.33647 36.1124 8.15625L39.3749 7.5" stroke="black" stroke-width="2" stroke-linecap="round" stroke-linejoin="round"/>
<path d="M39.375 5.62485L41.25 26.2498H37.5M5.625 5.62485L3.75 26.2498L15.9375 38.4373C16.6834 39.1833 17.6951 39.6023 18.75 39.6023C19.8049 39.6023 20.8166 39.1833 21.5625 38.4373C22.3084 37.6914 22.7275 36.6797 22.7275 35.6248C22.7275 34.57 22.3084 33.5583 21.5625 32.8123M5.625 7.49985H20.625" stroke="black" stroke-width="2" stroke-linecap="round" stroke-linejoin="round"/>
</svg>
