<svg width="15" height="13" viewBox="0 0 15 13" fill="none" xmlns="http://www.w3.org/2000/svg">
<path d="M13.0251 1.88117C12.7059 1.5618 12.3268 1.30845 11.9097 1.1356C11.4925 0.962746 11.0454 0.873779 10.5938 0.873779C10.1423 0.873779 9.69514 0.962746 9.27798 1.1356C8.86082 1.30845 8.4818 1.5618 8.16257 1.88117L7.50007 2.54367L6.83757 1.88117C6.19277 1.23636 5.31822 0.874114 4.40632 0.874114C3.49443 0.874114 2.61988 1.23636 1.97507 1.88117C1.33027 2.52598 0.968018 3.40052 0.968018 4.31242C0.968018 5.22432 1.33027 6.09886 1.97507 6.74367L2.63757 7.40617L7.50007 12.2687L12.3626 7.40617L13.0251 6.74367C13.3444 6.42445 13.5978 6.04543 13.7706 5.62827C13.9435 5.21111 14.0325 4.76397 14.0325 4.31242C14.0325 3.86087 13.9435 3.41374 13.7706 2.99657C13.5978 2.57941 13.3444 2.20039 13.0251 1.88117Z" stroke="currentColor" stroke-linecap="round" stroke-linejoin="round"/>
</svg>
