<svg width="20" height="21" viewBox="0 0 20 21" fill="none" xmlns="http://www.w3.org/2000/svg">
<g filter="url(#filter0_i_2263_945)">
<path fill-rule="evenodd" clip-rule="evenodd" d="M6.22087 1.18391C7.19837 1.13891 7.51004 1.12891 10 1.12891C12.49 1.12891 12.8017 1.13974 13.7784 1.18391C14.755 1.22807 15.4217 1.38391 16.005 1.60974C16.6159 1.84057 17.17 2.20141 17.6284 2.66807C18.095 3.12557 18.455 3.67891 18.685 4.29057C18.9117 4.87391 19.0667 5.54057 19.1117 6.51557C19.1567 7.49474 19.1667 7.80641 19.1667 10.2956C19.1667 12.7856 19.1559 13.0972 19.1117 14.0747C19.0675 15.0497 18.9117 15.7164 18.685 16.2997C18.455 16.9115 18.0944 17.4657 17.6284 17.9239C17.17 18.3906 16.6159 18.7506 16.005 18.9806C15.4217 19.2072 14.755 19.3622 13.78 19.4072C12.8017 19.4522 12.49 19.4622 10 19.4622C7.51004 19.4622 7.19837 19.4514 6.22087 19.4072C5.24587 19.3631 4.57921 19.2072 3.99587 18.9806C3.38414 18.7505 2.82989 18.39 2.37171 17.9239C1.90536 17.4661 1.54447 16.9121 1.31421 16.3006C1.08837 15.7172 0.933374 15.0506 0.888374 14.0756C0.843374 13.0964 0.833374 12.7847 0.833374 10.2956C0.833374 7.80557 0.844207 7.49391 0.888374 6.51724C0.932541 5.54057 1.08837 4.87391 1.31421 4.29057C1.54481 3.67897 1.90597 3.125 2.37254 2.66724C2.83007 2.20099 3.38377 1.84011 3.99504 1.60974C4.57837 1.38391 5.24504 1.22891 6.22004 1.18391H6.22087ZM13.7042 2.83391C12.7375 2.78974 12.4475 2.78057 10 2.78057C7.55254 2.78057 7.26254 2.78974 6.29587 2.83391C5.40171 2.87474 4.91671 3.02391 4.59337 3.14974C4.16587 3.31641 3.86004 3.51391 3.53921 3.83474C3.23508 4.13062 3.00102 4.49081 2.85421 4.88891C2.72837 5.21224 2.57921 5.69724 2.53837 6.59141C2.49421 7.55807 2.48504 7.84807 2.48504 10.2956C2.48504 12.7431 2.49421 13.0331 2.53837 13.9997C2.57921 14.8939 2.72837 15.3789 2.85421 15.7022C3.00087 16.0997 3.23504 16.4606 3.53921 16.7564C3.83504 17.0606 4.19587 17.2947 4.59337 17.4414C4.91671 17.5672 5.40171 17.7164 6.29587 17.7572C7.26254 17.8014 7.55171 17.8106 10 17.8106C12.4484 17.8106 12.7375 17.8014 13.7042 17.7572C14.5984 17.7164 15.0834 17.5672 15.4067 17.4414C15.8342 17.2747 16.14 17.0772 16.4609 16.7564C16.765 16.4606 16.9992 16.0997 17.1459 15.7022C17.2717 15.3789 17.4209 14.8939 17.4617 13.9997C17.5059 13.0331 17.515 12.7431 17.515 10.2956C17.515 7.84807 17.5059 7.55807 17.4617 6.59141C17.4209 5.69724 17.2717 5.21224 17.1459 4.88891C16.9792 4.46141 16.7817 4.15557 16.4609 3.83474C16.165 3.53063 15.8048 3.29658 15.4067 3.14974C15.0834 3.02391 14.5984 2.87474 13.7042 2.83391ZM8.82921 13.1214C9.48309 13.3936 10.2112 13.4303 10.8891 13.2253C11.5671 13.0203 12.1529 12.5863 12.5464 11.9974C12.9399 11.4085 13.1168 10.7013 13.0467 9.99649C12.9767 9.29169 12.6642 8.63305 12.1625 8.13307C11.8427 7.81347 11.456 7.56875 11.0303 7.41653C10.6046 7.26431 10.1504 7.20837 9.70045 7.25275C9.25051 7.29713 8.816 7.44072 8.42821 7.67318C8.04042 7.90564 7.70899 8.22119 7.45779 8.59712C7.20659 8.97304 7.04186 9.39998 6.97547 9.84721C6.90908 10.2944 6.94267 10.7508 7.07382 11.1835C7.20498 11.6162 7.43044 12.0144 7.73397 12.3495C8.03751 12.6846 8.41156 12.9482 8.82921 13.1214ZM6.66837 6.96391C7.10589 6.52639 7.62531 6.17933 8.19696 5.94254C8.7686 5.70576 9.38129 5.58388 10 5.58388C10.6188 5.58388 11.2315 5.70576 11.8031 5.94254C12.3748 6.17933 12.8942 6.52639 13.3317 6.96391C13.7692 7.40143 14.1163 7.92084 14.3531 8.49249C14.5899 9.06414 14.7117 9.67683 14.7117 10.2956C14.7117 10.9143 14.5899 11.527 14.3531 12.0987C14.1163 12.6703 13.7692 13.1897 13.3317 13.6272C12.4481 14.5109 11.2497 15.0073 10 15.0073C8.75042 15.0073 7.55199 14.5109 6.66837 13.6272C5.78476 12.7436 5.28835 11.5452 5.28835 10.2956C5.28835 9.04596 5.78476 7.84752 6.66837 6.96391ZM15.7567 6.28557C15.8651 6.1833 15.9519 6.06031 16.012 5.92388C16.072 5.78746 16.104 5.64038 16.1062 5.49135C16.1084 5.34232 16.0806 5.19436 16.0246 5.05625C15.9686 4.91813 15.8854 4.79267 15.78 4.68727C15.6746 4.58188 15.5491 4.4987 15.411 4.44267C15.2729 4.38664 15.125 4.35889 14.9759 4.36106C14.8269 4.36323 14.6798 4.39528 14.5434 4.45532C14.407 4.51536 14.284 4.60215 14.1817 4.71057C13.9828 4.92143 13.8739 5.20151 13.8781 5.49135C13.8823 5.78119 13.9994 6.05797 14.2043 6.26294C14.4093 6.46791 14.6861 6.58493 14.9759 6.58916C15.2658 6.59338 15.5458 6.48448 15.7567 6.28557Z" fill="#181818"/>
</g>
<defs>
<filter id="filter0_i_2263_945" x="0" y="0.295898" width="20" height="24" filterUnits="userSpaceOnUse" color-interpolation-filters="sRGB">
<feFlood flood-opacity="0" result="BackgroundImageFix"/>
<feBlend mode="normal" in="SourceGraphic" in2="BackgroundImageFix" result="shape"/>
<feColorMatrix in="SourceAlpha" type="matrix" values="0 0 0 0 0 0 0 0 0 0 0 0 0 0 0 0 0 0 127 0" result="hardAlpha"/>
<feOffset dy="4"/>
<feGaussianBlur stdDeviation="7.5"/>
<feComposite in2="hardAlpha" operator="arithmetic" k2="-1" k3="1"/>
<feColorMatrix type="matrix" values="0 0 0 0 0 0 0 0 0 0 0 0 0 0 0 0 0 0 0.2 0"/>
<feBlend mode="normal" in2="shape" result="effect1_innerShadow_2263_945"/>
</filter>
</defs>
</svg>
