<svg xmlns="http://www.w3.org/2000/svg" width="133" height="53" fill="none">
  <rect width="53" height="53" fill="#03779B" rx="26.5"/>
  <path fill="#fff" d="M13.7 34a.453.453 0 0 1-.3-.12.407.407 0 0 1-.12-.3.49.49 0 0 1 .04-.18l4.82-12.9a.718.718 0 0 1 .22-.34c.12-.107.28-.16.48-.16h2.18c.2 0 .353.053.46.16a.878.878 0 0 1 .24.34l4.82 12.9a.93.93 0 0 1 .02.18c0 .12-.04.22-.12.3a.384.384 0 0 1-.28.12h-1.74c-.187 0-.327-.04-.42-.12a.808.808 0 0 1-.16-.26l-.94-2.44h-5.94l-.94 2.44a.706.706 0 0 1-.18.26c-.08.08-.213.12-.4.12H13.7Zm3.96-5.12h4.54l-2.28-6.18-2.26 6.18ZM27.567 34a.453.453 0 0 1-.3-.12.407.407 0 0 1-.12-.3.49.49 0 0 1 .04-.18l4.82-12.9a.718.718 0 0 1 .22-.34c.12-.107.28-.16.48-.16h2.18c.2 0 .353.053.46.16a.878.878 0 0 1 .24.34l4.82 12.9a.93.93 0 0 1 .02.18c0 .12-.04.22-.12.3a.384.384 0 0 1-.28.12h-1.74c-.187 0-.326-.04-.42-.12a.808.808 0 0 1-.16-.26l-.94-2.44h-5.94l-.94 2.44a.706.706 0 0 1-.18.26c-.08.08-.213.12-.4.12h-1.74Zm3.96-5.12h4.54l-2.28-6.18-2.26 6.18Z"/>
  <rect width="53" height="53" x="40" fill="#000" rx="26.5"/>
  <path fill="#fff" d="M59.94 34.2c-1.187 0-2.207-.193-3.06-.58a4.481 4.481 0 0 1-2-1.82c-.48-.827-.74-1.853-.78-3.08a73.308 73.308 0 0 1 0-3.42c.04-1.213.307-2.227.8-3.04a4.726 4.726 0 0 1 2.02-1.84c.867-.413 1.873-.62 3.02-.62s2.153.207 3.02.62A4.7 4.7 0 0 1 65 22.26c.493.813.76 1.827.8 3.04a36.542 36.542 0 0 1 0 3.42c-.04 1.227-.3 2.253-.78 3.08A4.46 4.46 0 0 1 63 33.62c-.853.387-1.873.58-3.06.58Zm0-2.3c.867 0 1.573-.253 2.12-.76.547-.52.84-1.36.88-2.52.027-.587.04-1.127.04-1.62 0-.507-.013-1.047-.04-1.62-.027-.773-.173-1.4-.44-1.88-.253-.493-.6-.847-1.04-1.06-.44-.227-.947-.34-1.52-.34-.56 0-1.06.113-1.5.34-.44.213-.793.567-1.06 1.06-.253.48-.393 1.107-.42 1.88a70.06 70.06 0 0 0-.02 1.62c0 .493.007 1.033.02 1.62.04 1.16.333 2 .88 2.52.547.507 1.247.76 2.1.76Zm9.006 2.1a.504.504 0 0 1-.34-.12.487.487 0 0 1-.14-.36V20.5c0-.147.047-.267.14-.36a.463.463 0 0 1 .34-.14h1.82c.147 0 .26.047.34.14.094.093.14.213.14.36v5.16h1.74l3.26-5.3a.806.806 0 0 1 .26-.26.94.94 0 0 1 .46-.1h1.98c.134 0 .234.04.3.12.08.08.12.18.12.3a.506.506 0 0 1-.08.24l-3.78 6.1 4.14 6.56c.04.04.06.113.06.22a.44.44 0 0 1-.14.32.4.4 0 0 1-.32.14h-2.06c-.173 0-.306-.04-.4-.12a2.715 2.715 0 0 1-.2-.22l-3.5-5.5h-1.84v5.36a.463.463 0 0 1-.14.34.424.424 0 0 1-.34.14h-1.82Z"/>
  <rect width="53" height="53" x="80" fill="#fff" rx="26.5"/>
  <path fill="#000" d="M96.896 33.176c-.917 0-1.69-.15-2.32-.448-.63-.31-1.11-.71-1.44-1.2a3.042 3.042 0 0 1-.512-1.568c-.01-.096.016-.17.08-.224a.382.382 0 0 1 .256-.096h1.488c.117 0 .213.027.288.08.085.043.15.123.192.24.107.32.256.581.448.784.203.203.432.352.688.448.267.096.544.144.832.144.384 0 .73-.075 1.04-.224.32-.16.576-.395.768-.704.192-.31.288-.688.288-1.136 0-.395-.09-.736-.272-1.024a1.84 1.84 0 0 0-.752-.672 2.183 2.183 0 0 0-1.072-.256c-.299 0-.544.037-.736.112-.192.075-.357.16-.496.256-.128.096-.245.181-.352.256a.531.531 0 0 1-.336.112h-1.472a.382.382 0 0 1-.256-.096.382.382 0 0 1-.096-.256l.56-5.472a.452.452 0 0 1 .144-.32.446.446 0 0 1 .304-.112h6.016a.37.37 0 0 1 .272.112.369.369 0 0 1 .112.272v1.072a.369.369 0 0 1-.112.272.37.37 0 0 1-.272.112h-4.624l-.256 2.608c.192-.128.448-.25.768-.368.32-.117.763-.176 1.328-.176.512 0 .997.085 1.456.256.47.16.885.4 1.248.72.363.31.645.688.848 1.136.213.437.32.939.32 1.504 0 .779-.181 1.456-.544 2.032a3.66 3.66 0 0 1-1.52 1.344c-.65.32-1.419.48-2.304.48Zm10.274-.016c-.757 0-1.403-.112-1.936-.336a3.485 3.485 0 0 1-1.312-.928 3.991 3.991 0 0 1-.768-1.36 6.46 6.46 0 0 1-.304-1.664c-.011-.288-.021-.603-.032-.944v-1.056c.011-.352.021-.677.032-.976a5.508 5.508 0 0 1 .304-1.648c.181-.523.443-.976.784-1.36a3.733 3.733 0 0 1 1.328-.912c.533-.224 1.168-.336 1.904-.336.747 0 1.387.112 1.92.336.533.224.971.528 1.312.912.352.384.613.837.784 1.36.181.512.283 1.061.304 1.648.021.299.032.624.032.976v1.056c0 .341-.011.656-.032.944a6.017 6.017 0 0 1-.288 1.664 3.991 3.991 0 0 1-.768 1.36c-.341.395-.784.704-1.328.928-.533.224-1.179.336-1.936.336Zm0-1.84c.693 0 1.2-.224 1.52-.672.331-.459.501-1.077.512-1.856.021-.31.032-.619.032-.928v-.96c0-.32-.011-.624-.032-.912-.011-.757-.181-1.365-.512-1.824-.32-.47-.827-.704-1.52-.704-.683 0-1.189.235-1.52.704-.32.459-.491 1.067-.512 1.824 0 .288-.005.592-.016.912v.96c.011.31.016.619.016.928.021.779.197 1.397.528 1.856.331.448.832.672 1.504.672Zm9.716 1.152a.369.369 0 0 1-.272-.112.369.369 0 0 1-.112-.272v-3.12h-3.072a.369.369 0 0 1-.272-.112.369.369 0 0 1-.112-.272v-.848c0-.117.037-.208.112-.272a.369.369 0 0 1 .272-.112h3.072v-3.04c0-.107.037-.197.112-.272a.369.369 0 0 1 .272-.112h.928a.34.34 0 0 1 .272.112.373.373 0 0 1 .112.272v3.04h3.072c.106 0 .197.037.272.112a.34.34 0 0 1 .112.272v.848a.373.373 0 0 1-.112.272.372.372 0 0 1-.272.112h-3.072v3.12a.373.373 0 0 1-.112.272.34.34 0 0 1-.272.112h-.928Z"/>
</svg>
