<svg width="13" height="12" viewBox="0 0 13 12" fill="none" xmlns="http://www.w3.org/2000/svg">
<path d="M6.75878 6.36912L6.49988 6.21242L6.24098 6.36912L5.43228 6.8586L5.64342 5.94015L5.71073 5.64735L5.48381 5.45046L4.76084 4.82319L5.71096 4.74846L6.01277 4.72472L6.13162 4.44628L6.49988 3.5835L6.86814 4.44628L6.98699 4.72472L7.2888 4.74846L8.23891 4.82319L7.51595 5.45046L7.28903 5.64735L7.35634 5.94015L7.56748 6.8586L6.75878 6.36912ZM7.66884 7.29952C7.66884 7.29951 7.66883 7.2995 7.66883 7.29949L7.66884 7.29952ZM2.74988 9.75H2.54277L2.39633 9.89645L0.958826 11.3339C0.936376 11.3564 0.919999 11.3676 0.910734 11.3729C0.902291 11.3777 0.898387 11.3784 0.897908 11.3785L0.897878 11.3785L0.897848 11.3785C0.897404 11.3786 0.893936 11.3793 0.885151 11.3782C0.875424 11.3769 0.857016 11.3729 0.828887 11.3609C0.775348 11.338 0.764436 11.3198 0.763959 11.319L0.763943 11.319L0.763907 11.3189C0.763003 11.3176 0.749786 11.2979 0.749879 11.2351V11.2344V1.5C0.749879 1.29006 0.818834 1.12289 0.970631 0.971354C1.12285 0.819397 1.29049 0.750312 1.50022 0.75H11.4999C11.7098 0.75 11.8774 0.818983 12.0295 0.971053C12.1815 1.12311 12.2501 1.29024 12.2499 1.49939V1.5V9C12.2499 9.21024 12.1809 9.37787 12.0292 9.52987C11.8779 9.68139 11.7108 9.75025 11.5005 9.75H11.4999H2.74988ZM11.4999 9.5H11.9999V9V1.5V1H11.4999H1.49988H0.999879V1.5V9.70312V10.8917L1.84953 10.0605L2.42252 9.5H11.4999Z" stroke="currentColor"/>
</svg>
