<svg aria-hidden="true" style="position: absolute; width: 0; height: 0; overflow: hidden;" version="1.1" xmlns="http://www.w3.org/2000/svg" xmlns:xlink="http://www.w3.org/1999/xlink">
<defs>
<symbol id="icon-apple" viewBox="0 0 32 32">
<path d="M10.646 12.947c0.081 0.243 0.062 0.507-0.053 0.736s-0.315 0.402-0.557 0.483c-0.296 0.094-0.571 0.245-0.808 0.445s-0.433 0.446-0.575 0.722c-0.359 0.673-0.602 1.781-0.376 3.588 0.031 0.254-0.039 0.51-0.197 0.712s-0.388 0.333-0.643 0.364c-0.254 0.031-0.51-0.039-0.712-0.197s-0.333-0.388-0.364-0.643c-0.255-2.051-0.017-3.596 0.59-4.732 0.617-1.158 1.557-1.785 2.473-2.089 0.12-0.040 0.247-0.056 0.374-0.047s0.25 0.043 0.363 0.099 0.215 0.135 0.298 0.231c0.083 0.096 0.146 0.207 0.187 0.327zM20.165 2.591c0.123-0.037 0.238-0.099 0.337-0.182s0.181-0.184 0.24-0.299c0.059-0.115 0.095-0.24 0.105-0.369s-0.006-0.258-0.047-0.38c-0.041-0.122-0.106-0.235-0.191-0.332s-0.189-0.175-0.305-0.231c-0.116-0.056-0.242-0.088-0.371-0.094s-0.258 0.013-0.379 0.058c-1.808 0.602-2.936 2.087-3.6 3.679-0.089 0.215-0.171 0.433-0.245 0.654-0.361-0.685-0.824-1.311-1.372-1.858-0.742-0.743-1.627-1.327-2.603-1.715s-2.020-0.573-3.069-0.542c-1.119 0.031-2.012 0.926-2.043 2.043-0.031 1.063 0.159 2.121 0.558 3.108s0.998 1.879 1.759 2.622c-1.621 0.351-3.085 1.214-4.177 2.463s-1.753 2.814-1.885 4.467l-0.012 0.143c-0.255 3.178 0.422 6.361 1.949 9.16l0.695 1.269c0.019 0.033 0.039 0.066 0.062 0.096l1.929 2.705c0.437 0.612 1.003 1.122 1.657 1.494s1.382 0.596 2.131 0.658c0.75 0.062 1.504-0.040 2.211-0.299s1.348-0.669 1.88-1.201c0.082-0.082 0.179-0.147 0.285-0.191s0.221-0.067 0.337-0.067 0.23 0.023 0.337 0.067c0.107 0.044 0.204 0.109 0.285 0.191 0.532 0.532 1.174 0.942 1.88 1.201s1.461 0.361 2.211 0.299c0.75-0.062 1.477-0.287 2.131-0.658s1.22-0.881 1.657-1.494l1.929-2.703c0.022-0.032 0.043-0.064 0.062-0.098l0.693-1.269c1.526-2.799 2.203-5.982 1.948-9.16l-0.010-0.143c-0.085-1.065-0.391-2.101-0.898-3.042s-1.203-1.767-2.046-2.424c-0.843-0.658-1.812-1.133-2.848-1.396s-2.115-0.308-3.169-0.133l-3.197 0.532c0.019-1.314 0.251-2.792 0.77-4.038 0.54-1.302 1.343-2.228 2.427-2.591zM13.529 8.969l-0.297-0.050c-1.133-0.219-2.174-0.772-2.988-1.59-0.557-0.556-0.995-1.22-1.286-1.952s-0.429-1.515-0.406-2.302c0.001-0.044 0.018-0.087 0.050-0.118s0.074-0.049 0.118-0.050c0.787-0.023 1.571 0.115 2.302 0.407s1.396 0.729 1.952 1.287c1.171 1.171 1.736 2.716 1.692 4.254-0.001 0.044-0.018 0.087-0.050 0.118s-0.074 0.049-0.118 0.050c-0.324 0.009-0.648-0.009-0.969-0.054zM12.896 10.819l1.837 0.307c0.84 0.14 1.697 0.14 2.537 0l3.21-0.536c0.791-0.132 1.6-0.098 2.377 0.099s1.505 0.554 2.137 1.047c0.632 0.493 1.154 1.113 1.535 1.819s0.609 1.483 0.673 2.282l0.012 0.143c0.224 2.804-0.374 5.614-1.721 8.084l-0.664 1.215-1.896 2.655c-0.274 0.384-0.629 0.704-1.040 0.938s-0.867 0.375-1.338 0.414-0.944-0.025-1.388-0.187c-0.443-0.162-0.846-0.42-1.18-0.753-0.261-0.261-0.571-0.468-0.912-0.61s-0.706-0.214-1.076-0.214-0.735 0.073-1.076 0.214c-0.341 0.141-0.651 0.348-0.912 0.61-0.334 0.334-0.736 0.59-1.18 0.753s-0.916 0.226-1.387 0.187c-0.47-0.039-0.927-0.18-1.337-0.413s-0.765-0.553-1.039-0.937l-1.896-2.655-0.664-1.215c-1.347-2.47-1.945-5.279-1.721-8.084l0.012-0.143c0.064-0.799 0.293-1.576 0.673-2.282s0.902-1.325 1.534-1.818c0.632-0.493 1.359-0.85 2.136-1.048s1.586-0.232 2.377-0.1l1.376 0.23z"></path>
<path d="M10.646 12.947v0zM10.037 14.167l0.214 0.678 0.006-0.002 0.005-0.002-0.225-0.675zM8.653 15.334l0.628 0.334 0.002-0.004 0.002-0.005-0.632-0.325zM8.277 18.922l0.706-0.087-0-0.001-0.706 0.088zM6.361 19.16v0zM6.952 14.427l0.627 0.335 0-0.001-0.627-0.335zM9.425 12.338l0.225 0.675 0.001-0-0.226-0.674zM19.554 0.762l0.225 0.675 0.010-0.003 0.010-0.004-0.245-0.668zM15.954 4.441l-0.656-0.274-0.001 0.002 0.657 0.272zM15.709 5.095l-0.629 0.332 0.774 1.467 0.528-1.572-0.674-0.227zM14.337 3.237l-0.503 0.502 0.001 0.001 0.502-0.503zM8.665 0.98l0.020 0.711 0.001-0-0.021-0.711zM6.622 3.023l0.711 0.021v-0.001l-0.711-0.020zM8.939 8.753l0.151 0.695 1.292-0.28-0.946-0.924-0.497 0.509zM2.877 15.683l0.709 0.057 0-0.001-0.709-0.057zM2.866 15.826v0zM4.814 24.986l-0.624 0.34 0 0.001 0.624-0.341zM5.509 26.255l-0.624 0.341 0.005 0.010 0.006 0.010 0.613-0.361zM5.57 26.352l0.579-0.413-0.005-0.007-0.005-0.007-0.569 0.427zM7.5 29.057v0zM15.379 29.709v0zM16.623 29.709v0zM24.502 29.057v0zM26.431 26.354v0zM26.493 26.255l0.624 0.342 0.001-0.001-0.624-0.341zM27.186 24.986v0zM29.134 15.826l-0.71 0.048 0.001 0.009 0.709-0.057zM29.125 15.683l0.71-0.048-0.001-0.009-0.709 0.057zM20.163 8.688l0.117 0.701 0-0-0.117-0.701zM16.967 9.22l-0.711-0.010-0.012 0.852 0.84-0.14-0.117-0.701zM17.736 5.182l0.657 0.273 0-0.001-0.657-0.272zM13.529 8.969l-0.118 0.701 0.010 0.002 0.010 0.001 0.099-0.704zM13.232 8.919l-0.135 0.698 0.008 0.002 0.008 0.001 0.118-0.701zM10.243 7.329l0.504-0.502-0.002-0.002-0.502 0.503zM8.551 3.075l0.711 0.021 0-0.006 0-0.006-0.711-0.008zM8.719 2.908l0.008 0.711 0.006-0 0.006-0-0.021-0.711zM12.973 4.601l-0.504 0.502 0.001 0.001 0.503-0.503zM14.665 8.855l-0.711-0.021-0 0.006-0 0.006 0.711 0.008zM14.497 9.023l-0.008-0.711-0.006 0-0.006 0 0.020 0.711zM12.896 10.819l0.118-0.701-0.001-0-0.117 0.701zM13.23 10.875l-0.118 0.701 0.001 0 0.117-0.701zM14.732 11.126l-0.117 0.701h0l0.117-0.701zM17.269 11.126l0.117 0.701 0-0-0.117-0.701zM20.48 10.59l-0.117-0.701-0 0 0.117 0.701zM27.201 15.837l-0.709 0.057 0 0.001 0.709-0.057zM27.213 15.98l0.709-0.057-0-0.001-0.709 0.058zM25.492 24.064v0zM24.828 25.279l0.579 0.413 0.025-0.035 0.021-0.038-0.624-0.341zM22.932 27.934v0zM17.987 28.345l-0.503 0.503 0 0 0.503-0.503zM16 27.521v0zM14.013 28.345l0.503 0.503 0.001-0-0.503-0.503zM9.070 27.934v0zM7.174 25.279l-0.624 0.341 0.021 0.038 0.025 0.035 0.579-0.413zM6.51 24.064v0zM4.789 15.98l-0.709-0.058-0 0.001 0.709 0.057zM4.801 15.837l0.709 0.057 0-0.001-0.709-0.057zM11.52 10.59l0.117-0.701h-0l-0.117 0.701zM9.972 13.172c0.021 0.064 0.016 0.133-0.014 0.193l1.272 0.636c0.199-0.397 0.231-0.857 0.091-1.278l-1.35 0.449zM9.958 13.365c-0.030 0.060-0.083 0.106-0.146 0.127l0.451 1.349c0.421-0.141 0.769-0.443 0.968-0.84l-1.272-0.636zM9.822 13.489c-0.386 0.122-0.743 0.319-1.053 0.58l0.917 1.087c0.166-0.14 0.357-0.245 0.564-0.311l-0.429-1.356zM8.77 14.068c-0.309 0.261-0.564 0.58-0.749 0.94l1.265 0.651c0.099-0.193 0.236-0.364 0.401-0.504l-0.917-1.087zM8.026 14.999c-0.45 0.844-0.691 2.113-0.454 4.011l1.411-0.176c-0.214-1.717 0.030-2.664 0.298-3.166l-1.255-0.669zM7.572 19.010c0.008 0.067-0.010 0.134-0.052 0.187l1.122 0.874c0.273-0.351 0.396-0.796 0.342-1.237l-1.411 0.175zM7.52 19.197c-0.041 0.053-0.102 0.088-0.169 0.096l0.175 1.411c0.441-0.055 0.843-0.282 1.116-0.633l-1.122-0.874zM7.351 19.293c-0.067 0.008-0.134-0.010-0.187-0.052l-0.874 1.122c0.351 0.273 0.795 0.396 1.237 0.342l-0.175-1.411zM7.163 19.241c-0.053-0.041-0.088-0.102-0.096-0.169l-1.411 0.175c0.055 0.441 0.282 0.843 0.633 1.116l0.874-1.122zM7.067 19.072c-0.244-1.961-0.004-3.345 0.512-4.309l-1.254-0.671c-0.7 1.308-0.935 3.015-0.669 5.156l1.411-0.175zM7.579 14.762c0.518-0.972 1.298-1.492 2.070-1.749l-0.449-1.35c-1.061 0.353-2.16 1.086-2.876 2.429l1.255 0.669zM9.651 13.012c0.032-0.011 0.065-0.015 0.098-0.012l0.1-1.419c-0.22-0.015-0.44 0.013-0.649 0.083l0.451 1.349zM9.749 13c0.033 0.002 0.066 0.011 0.095 0.026l0.635-1.272c-0.197-0.098-0.412-0.157-0.631-0.172l-0.1 1.419zM9.844 13.026c0.030 0.015 0.056 0.036 0.078 0.061l1.074-0.932c-0.144-0.166-0.32-0.303-0.517-0.401l-0.635 1.272zM9.923 13.086c0.022 0.025 0.038 0.054 0.049 0.086l1.349-0.45c-0.070-0.209-0.18-0.402-0.324-0.568l-1.074 0.932zM20.372 3.272c0.214-0.065 0.414-0.172 0.586-0.316l-0.91-1.093c-0.026 0.022-0.056 0.038-0.089 0.048l0.413 1.361zM20.957 2.956c0.172-0.143 0.314-0.32 0.417-0.519l-1.264-0.653c-0.016 0.030-0.037 0.057-0.063 0.079l0.91 1.093zM21.374 2.437c0.103-0.199 0.165-0.417 0.182-0.64l-1.418-0.11c-0.003 0.034-0.012 0.067-0.028 0.097l1.264 0.653zM21.556 1.797c0.017-0.223-0.011-0.448-0.082-0.661l-1.349 0.451c0.011 0.032 0.015 0.066 0.012 0.1l1.418 0.11zM21.475 1.137c-0.071-0.213-0.184-0.409-0.332-0.577l-1.067 0.94c0.022 0.025 0.039 0.055 0.050 0.087l1.349-0.451zM21.143 0.56c-0.148-0.168-0.329-0.305-0.53-0.402l-0.617 1.282c0.031 0.015 0.058 0.035 0.080 0.061l1.067-0.94zM20.612 0.158c-0.202-0.097-0.421-0.153-0.645-0.164l-0.069 1.421c0.034 0.002 0.067 0.010 0.098 0.025l0.617-1.282zM19.967-0.006c-0.224-0.011-0.448 0.023-0.658 0.1l0.489 1.335c0.032-0.012 0.066-0.017 0.1-0.015l0.069-1.421zM19.329 0.087c-2.076 0.691-3.324 2.383-4.032 4.080l1.313 0.547c0.62-1.486 1.628-2.765 3.168-3.278l-0.449-1.349zM15.297 4.169c-0.095 0.23-0.183 0.463-0.262 0.7l1.348 0.453c0.069-0.205 0.145-0.408 0.228-0.608l-1.314-0.544zM16.338 4.763c-0.395-0.748-0.9-1.432-1.498-2.029l-1.005 1.007c0.497 0.497 0.917 1.065 1.245 1.687l1.258-0.664zM14.84 2.735c-0.81-0.812-1.778-1.449-2.843-1.873l-0.526 1.321c0.885 0.352 1.689 0.882 2.362 1.556l1.007-1.005zM11.997 0.862c-1.066-0.424-2.207-0.626-3.353-0.592l0.041 1.422c0.952-0.028 1.9 0.14 2.786 0.492l0.526-1.321zM8.645 0.269c-1.497 0.041-2.693 1.24-2.734 2.734l1.422 0.039c0.020-0.74 0.611-1.331 1.352-1.352l-0.039-1.422zM5.911 3.003c-0.034 1.162 0.174 2.317 0.61 3.395l1.319-0.533c-0.362-0.895-0.534-1.856-0.507-2.821l-1.422-0.041zM6.521 6.398c0.436 1.077 1.090 2.053 1.921 2.864l0.994-1.018c-0.691-0.675-1.234-1.485-1.596-2.38l-1.319 0.533zM8.788 8.058c-1.77 0.383-3.369 1.326-4.562 2.689l1.070 0.936c0.991-1.133 2.321-1.917 3.792-2.236l-0.301-1.39zM4.227 10.748c-1.192 1.363-1.914 3.074-2.059 4.879l1.418 0.113c0.12-1.501 0.72-2.923 1.711-4.056l-1.070-0.936zM2.168 15.626l-0.012 0.143 1.418 0.115 0.012-0.143-1.418-0.115zM2.157 15.769c-0.266 3.316 0.441 6.637 2.033 9.557l1.249-0.681c-1.46-2.678-2.108-5.723-1.864-8.763l-1.418-0.114zM4.19 25.327l0.695 1.269 1.248-0.683-0.695-1.269-1.248 0.683zM4.896 26.616c0.016 0.027 0.055 0.095 0.106 0.163l1.138-0.853c0.004 0.005 0.005 0.007 0.001 0.001-0.002-0.003-0.004-0.006-0.007-0.012s-0.007-0.012-0.012-0.020l-1.226 0.721zM4.992 26.765l1.929 2.705 1.158-0.826-1.929-2.705-1.158 0.826zM6.921 29.47c0.497 0.696 1.14 1.276 1.884 1.699l0.703-1.237c-0.564-0.321-1.052-0.76-1.429-1.289l-1.157 0.826zM8.805 31.169c0.744 0.423 1.571 0.678 2.424 0.749l0.117-1.417c-0.647-0.054-1.274-0.247-1.839-0.568l-0.703 1.237zM11.229 31.918c0.853 0.071 1.711-0.046 2.514-0.34l-0.49-1.335c-0.609 0.224-1.26 0.312-1.907 0.258l-0.117 1.417zM13.744 31.577c0.803-0.295 1.533-0.761 2.138-1.366l-1.006-1.006c-0.459 0.459-1.012 0.813-1.622 1.036l0.49 1.335zM15.882 30.212c0.016-0.016 0.034-0.028 0.055-0.037l-0.544-1.314c-0.193 0.080-0.368 0.197-0.516 0.345l1.006 1.006zM15.936 30.175c0.020-0.009 0.042-0.013 0.065-0.013v-1.422c-0.209 0-0.416 0.041-0.609 0.121l0.544 1.314zM16.001 30.162c0.022 0 0.044 0.004 0.064 0.013l0.544-1.314c-0.193-0.080-0.4-0.121-0.609-0.121v1.422zM16.066 30.175c0.020 0.008 0.039 0.021 0.055 0.037l1.006-1.006c-0.148-0.148-0.323-0.265-0.516-0.345l-0.544 1.314zM16.12 30.212c0.605 0.605 1.335 1.071 2.138 1.366l0.49-1.335c-0.61-0.224-1.163-0.577-1.622-1.036l-1.006 1.006zM18.258 31.577c0.803 0.295 1.661 0.411 2.514 0.34l-0.117-1.417c-0.647 0.054-1.298-0.035-1.907-0.258l-0.49 1.335zM20.772 31.918c0.853-0.071 1.68-0.326 2.424-0.749l-0.703-1.237c-0.564 0.321-1.192 0.515-1.839 0.568l0.117 1.417zM23.197 31.169c0.744-0.423 1.387-1.002 1.884-1.699l-1.157-0.826c-0.377 0.528-0.865 0.968-1.429 1.289l0.703 1.237zM25.081 29.47l1.929-2.703-1.158-0.826-1.929 2.703 1.158 0.826zM27.011 26.767c0.039-0.054 0.074-0.111 0.106-0.169l-1.247-0.684c-0.005 0.009-0.011 0.019-0.017 0.027l1.158 0.826zM27.117 26.596l0.693-1.269-1.248-0.681-0.693 1.269 1.248 0.681zM27.81 25.326c1.592-2.92 2.299-6.242 2.033-9.557l-1.418 0.114c0.244 3.040-0.404 6.085-1.864 8.763l1.249 0.681zM29.844 15.778l-0.010-0.143-1.419 0.096 0.010 0.143 1.419-0.096zM29.834 15.626c-0.093-1.164-0.427-2.295-0.981-3.323l-1.252 0.674c0.46 0.854 0.738 1.795 0.815 2.762l1.418-0.114zM28.853 12.303c-0.553-1.028-1.314-1.929-2.234-2.648l-0.875 1.121c0.765 0.597 1.397 1.347 1.857 2.201l1.252-0.674zM26.619 9.656c-0.92-0.718-1.979-1.238-3.111-1.525l-0.35 1.378c0.94 0.239 1.821 0.671 2.586 1.268l0.875-1.121zM23.508 8.131c-1.131-0.287-2.31-0.337-3.461-0.145l0.234 1.403c0.957-0.159 1.937-0.119 2.877 0.12l0.35-1.378zM20.047 7.986l-3.197 0.532 0.234 1.403 3.197-0.532-0.234-1.403zM17.678 9.23c0.018-1.249 0.24-2.633 0.715-3.775l-1.313-0.547c-0.562 1.351-0.804 2.922-0.824 4.301l1.422 0.021zM18.393 5.455c0.495-1.193 1.177-1.915 1.996-2.189l-0.451-1.349c-1.35 0.451-2.273 1.582-2.858 2.993l1.314 0.545zM13.647 8.268l-0.297-0.050-0.237 1.402 0.297 0.050 0.237-1.402zM13.366 8.221c-0.993-0.192-1.906-0.677-2.619-1.393l-1.007 1.004c0.915 0.918 2.085 1.54 3.357 1.786l0.269-1.396zM10.745 6.826c-0.489-0.488-0.872-1.070-1.128-1.711l-1.322 0.526c0.327 0.822 0.819 1.568 1.445 2.193l1.004-1.007zM9.618 5.115c-0.255-0.641-0.376-1.328-0.356-2.018l-1.422-0.042c-0.026 0.884 0.129 1.764 0.456 2.586l1.322-0.526zM9.262 3.083c-0.002 0.141-0.059 0.277-0.159 0.377l-1.006-1.006c-0.163 0.163-0.255 0.383-0.258 0.613l1.422 0.016zM9.104 3.46c-0.1 0.1-0.235 0.157-0.377 0.159l-0.016-1.422c-0.23 0.003-0.45 0.095-0.613 0.258l1.006 1.006zM8.74 3.618c0.69-0.020 1.377 0.101 2.018 0.357l0.526-1.321c-0.822-0.327-1.702-0.483-2.586-0.457l0.042 1.422zM10.758 3.975c0.641 0.255 1.224 0.639 1.711 1.128l1.007-1.004c-0.624-0.627-1.371-1.119-2.192-1.446l-0.526 1.321zM12.47 5.104c1.027 1.028 1.523 2.381 1.484 3.731l1.422 0.041c0.050-1.726-0.585-3.463-1.9-4.777l-1.006 1.006zM13.954 8.847c0.002-0.141 0.058-0.277 0.159-0.377l1.006 1.006c0.163-0.163 0.255-0.383 0.258-0.613l-1.422-0.016zM14.112 8.471c0.1-0.1 0.235-0.157 0.377-0.159l0.016 1.422c0.23-0.003 0.45-0.095 0.613-0.258l-1.006-1.006zM14.477 8.312c-0.284 0.008-0.569-0.008-0.85-0.047l-0.197 1.409c0.36 0.050 0.723 0.071 1.087 0.061l-0.039-1.422zM12.778 11.521l0.334 0.056 0.235-1.403-0.334-0.056-0.235 1.403zM13.113 11.577l1.503 0.251 0.234-1.403-1.503-0.251-0.234 1.403zM14.616 11.828c0.917 0.153 1.853 0.153 2.771 0l-0.234-1.403c-0.762 0.127-1.541 0.127-2.303 0l-0.234 1.403zM17.387 11.828l3.21-0.536-0.234-1.403-3.21 0.536 0.234 1.403zM20.597 11.291c0.694-0.116 1.404-0.086 2.085 0.087l0.35-1.378c-0.873-0.222-1.782-0.26-2.669-0.112l0.234 1.403zM22.682 11.378c0.682 0.173 1.32 0.486 1.874 0.919l0.875-1.121c-0.71-0.554-1.526-0.955-2.399-1.176l-0.35 1.378zM24.556 12.297c0.554 0.433 1.013 0.976 1.346 1.595l1.252-0.674c-0.427-0.793-1.013-1.488-1.723-2.042l-0.875 1.121zM25.902 13.892c0.333 0.619 0.534 1.301 0.59 2.002l1.418-0.113c-0.072-0.897-0.329-1.77-0.756-2.563l-1.252 0.674zM26.492 15.895l0.012 0.143 1.418-0.115-0.012-0.143-1.418 0.115zM26.504 16.037c0.213 2.667-0.355 5.338-1.636 7.686l1.248 0.681c1.414-2.591 2.041-5.538 1.805-8.481l-1.418 0.113zM24.868 23.723l-0.664 1.215 1.248 0.682 0.664-1.215-1.248-0.682zM24.25 24.866l-1.896 2.655 1.157 0.827 1.896-2.655-1.157-0.827zM22.353 27.521c-0.214 0.3-0.491 0.55-0.812 0.733l0.703 1.236c0.5-0.284 0.933-0.674 1.267-1.143l-1.158-0.826zM21.541 28.253c-0.321 0.182-0.677 0.293-1.045 0.323l0.118 1.417c0.574-0.048 1.13-0.22 1.63-0.504l-0.703-1.236zM20.496 28.577c-0.368 0.030-0.738-0.019-1.084-0.146l-0.489 1.335c0.54 0.198 1.117 0.276 1.691 0.228l-0.118-1.417zM19.412 28.43c-0.346-0.127-0.661-0.328-0.922-0.589l-1.006 1.006c0.407 0.407 0.898 0.72 1.438 0.918l0.489-1.335zM18.49 27.842c-0.327-0.327-0.715-0.587-1.142-0.764l-0.545 1.314c0.255 0.106 0.486 0.26 0.681 0.455l1.006-1.005zM17.348 27.078c-0.427-0.177-0.885-0.268-1.348-0.268v1.422c0.276 0 0.549 0.054 0.803 0.16l0.545-1.314zM16 26.81c-0.463 0-0.921 0.091-1.348 0.268l0.544 1.314c0.255-0.106 0.528-0.16 0.803-0.16v-1.422zM14.652 27.078c-0.427 0.177-0.816 0.437-1.142 0.764l1.006 1.005c0.195-0.195 0.426-0.35 0.681-0.455l-0.544-1.314zM13.51 27.842c-0.261 0.261-0.575 0.461-0.922 0.588l0.489 1.336c0.54-0.198 1.031-0.511 1.438-0.917l-1.005-1.006zM12.589 28.43c-0.346 0.127-0.716 0.177-1.083 0.146l-0.118 1.417c0.573 0.048 1.15-0.030 1.69-0.228l-0.489-1.336zM11.505 28.576c-0.367-0.031-0.724-0.141-1.044-0.323l-0.703 1.236c0.5 0.284 1.056 0.456 1.629 0.504l0.118-1.417zM10.461 28.253c-0.321-0.182-0.598-0.432-0.812-0.732l-1.157 0.827c0.334 0.468 0.767 0.858 1.267 1.142l0.703-1.236zM9.649 27.52l-1.896-2.655-1.157 0.827 1.896 2.655 1.157-0.827zM7.798 24.938l-0.664-1.215-1.248 0.682 0.664 1.215 1.248-0.682zM7.134 23.723c-1.281-2.349-1.85-5.020-1.636-7.686l-1.418-0.113c-0.236 2.942 0.392 5.89 1.805 8.481l1.248-0.681zM5.498 16.038l0.012-0.143-1.418-0.115-0.012 0.143 1.418 0.115zM5.51 15.894c0.056-0.701 0.257-1.382 0.59-2.001l-1.252-0.674c-0.427 0.792-0.684 1.665-0.756 2.562l1.418 0.114zM6.1 13.893c0.333-0.619 0.791-1.162 1.345-1.595l-0.875-1.121c-0.709 0.554-1.296 1.249-1.722 2.042l1.252 0.674zM7.445 12.298c0.554-0.433 1.192-0.746 1.873-0.919l-0.351-1.378c-0.872 0.222-1.689 0.622-2.398 1.176l0.875 1.121zM9.319 11.379c0.681-0.173 1.391-0.203 2.085-0.088l0.234-1.403c-0.888-0.148-1.797-0.11-2.669 0.112l0.351 1.378zM11.403 11.291l1.376 0.23 0.234-1.403-1.376-0.23-0.234 1.403z"></path>
</symbol>
<symbol id="icon-codementor" viewBox="0 0 32 32">
<path stroke-linejoin="miter" stroke-linecap="butt" stroke-miterlimit="4" stroke-width="1.0667" d="M11.473 21.153v0c-0.049 0.020-0.102 0.030-0.155 0.030h-3.812c-0.053 0-0.106-0.010-0.155-0.030s-0.094-0.050-0.132-0.087v0c-0.038-0.037-0.068-0.082-0.088-0.131v0c-0.020-0.049-0.031-0.101-0.031-0.154 0.001-0.215 0.179-0.399 0.409-0.399h3.807c0.229 0 0.407 0.183 0.408 0.399-0 0.053-0.011 0.105-0.031 0.153s-0.050 0.093-0.088 0.131c-0.038 0.037-0.082 0.067-0.132 0.087zM12.238 17.725h-4.709c-0.053 0-0.106-0.010-0.155-0.030s-0.094-0.050-0.131-0.087c-0.038-0.037-0.068-0.082-0.088-0.131s-0.031-0.101-0.031-0.153c0.001-0.216 0.179-0.399 0.408-0.399h4.705c0.228 0 0.407 0.184 0.408 0.399-0 0.053-0.011 0.105-0.031 0.153s-0.051 0.093-0.088 0.131v0c-0.038 0.037-0.082 0.067-0.132 0.087s-0.102 0.030-0.155 0.030zM20.213 14.051h-0.001c-0.605 0.001-1.186-0.238-1.615-0.665s-0.671-1.004-0.675-1.607c0.004-0.603 0.246-1.18 0.675-1.605s1.010-0.663 1.614-0.66h0.005c0.299-0.001 0.596 0.056 0.873 0.17s0.529 0.28 0.741 0.491 0.381 0.461 0.497 0.737c0.115 0.275 0.176 0.57 0.177 0.869-0.004 0.604-0.247 1.182-0.675 1.607s-1.010 0.665-1.614 0.664zM22.204 9.795c0.262 0.26 0.471 0.569 0.613 0.91s0.217 0.706 0.219 1.075c-0.004 0.746-0.304 1.46-0.833 1.985s-1.245 0.82-1.991 0.819l1.992-4.789zM24.395 21.561h-8.365c-0.119 0-0.237-0.025-0.345-0.075s-0.204-0.122-0.282-0.213c-0.077-0.091-0.134-0.197-0.166-0.312s-0.039-0.235-0.020-0.352c0.381-2.351 1.631-4.194 3.193-4.997 0.562 0.265 1.178 0.403 1.802 0.403s1.239-0.138 1.802-0.403c1.562 0.803 2.813 2.649 3.193 4.997 0.081 0.501-0.306 0.954-0.812 0.952zM14.12 14.271h-0.003c-2.261 0-3.615-0-4.39-0-0.012-0.001-0.022-0.002-0.025-0.002l-0.007-0-0.008-0c-0.046-0-0.562-0-2.158-0h-0.003c-0.053 0-0.106-0.010-0.155-0.030v0c-0.049-0.020-0.094-0.050-0.132-0.087v0c-0.038-0.037-0.068-0.082-0.088-0.131v0c-0.020-0.049-0.031-0.101-0.031-0.153 0.001-0.215 0.179-0.399 0.409-0.399 0 0 0 0 0 0l6.588 0.001c0.23 0 0.409 0.184 0.408 0.4-0 0.053-0.011 0.105-0.031 0.154s-0.050 0.093-0.088 0.131v0c-0.038 0.037-0.082 0.067-0.131 0.087s-0.102 0.030-0.155 0.030zM7.531 10.812h-0.004c-0.053 0-0.106-0.010-0.155-0.030s-0.094-0.050-0.131-0.087c-0.038-0.037-0.068-0.082-0.088-0.131s-0.031-0.101-0.031-0.154c0-0.215 0.179-0.399 0.409-0.399h6.587c0.228 0 0.406 0.182 0.407 0.398-0.001 0.107-0.044 0.208-0.12 0.283s-0.179 0.117-0.286 0.117l-6.588 0.001zM3.765 24.495h8.984l5.192 0.873 0.002-0.533-0 0.533h-0c0.373 0.001 0.731-0.146 0.996-0.409 0.135-0.133 0.24-0.291 0.311-0.463h9.52v-17.867h-25.537v17.865h0.533zM14.057 25.367h-0c0 0 0 0 0 0zM30.117 24.496h1.349v0.743c0 0.507-0.418 0.928-0.941 0.928h-29.051c-0.524 0-0.941-0.42-0.941-0.928v-0.743h1.884v-17.353c0-0.719 0.588-1.309 1.325-1.309h24.516c0.736 0 1.325 0.591 1.325 1.309v17.353h0.533z"></path>
</symbol>
<symbol id="icon-globe" viewBox="0 0 32 32">
<path stroke-linejoin="miter" stroke-linecap="butt" stroke-miterlimit="4" stroke-width="1.1111" d="M27.445 22.62v0c-0.011-0.009-0.019-0.012-0.023-0.014s-0.010-0.002-0.015-0.001c-0.008 0.001-0.027 0.006-0.047 0.033v0c-0.302 0.408-0.629 0.806-0.972 1.183l-0 0c-0.022 0.024-0.039 0.063-0.038 0.111s0.018 0.087 0.040 0.11l1.056-1.422zM27.445 22.62c0.021 0.018 0.041 0.052 0.046 0.099s-0.008 0.090-0.030 0.12c-0.307 0.415-0.639 0.819-0.987 1.201l0.971-1.421zM26.415 24.062c0.006 0.003 0.012 0.004 0.016 0.004s0.011-0.001 0.017-0.004c0.006-0.003 0.015-0.008 0.026-0.020l-0.060 0.021zM26.415 24.062c-0.006-0.003-0.015-0.008-0.026-0.019l0.026 0.019z"></path>
<path stroke-linejoin="miter" stroke-linecap="butt" stroke-miterlimit="4" stroke-width="1.1111" d="M25.182 26.034c0.281-0.23 0.336-0.663 0.123-0.966s-0.613-0.363-0.893-0.133c-2.411 1.977-5.332 3.123-8.448 3.313-0.351 0.022-0.62 0.347-0.6 0.728M25.182 26.034l-0.352-0.43M25.182 26.034c-2.613 2.143-5.776 3.385-9.146 3.591-0.012 0.001-0.024 0.001-0.037 0.001-0.336 0-0.617-0.284-0.636-0.651M25.182 26.034l-0.352-0.43c0 0 0 0 0-0M24.83 25.604c0.021-0.017 0.042-0.049 0.048-0.096s-0.006-0.091-0.027-0.122M24.83 25.604c-2.523 2.069-5.574 3.267-8.828 3.466v0l-0.003 0v-0c-0.007 0-0.021-0.002-0.040-0.021s-0.038-0.054-0.041-0.103l-0.555 0.029M24.85 25.386c0 0 0 0 0 0l-0-0zM24.85 25.386c-0.020-0.029-0.039-0.035-0.048-0.036-0.005-0.001-0.010-0-0.015 0.001s-0.012 0.004-0.023 0.013l-0 0c-2.501 2.051-5.534 3.24-8.766 3.438h-0c-0.008 0-0.025 0.004-0.045 0.028s-0.037 0.065-0.035 0.116l-0.555 0.029"></path>
<path stroke-linejoin="miter" stroke-linecap="butt" stroke-miterlimit="4" stroke-width="2.2222" d="M31.547 12.21l-0-0c-0.364-1.497-0.942-2.93-1.718-4.262-1.104-1.893-2.558-3.514-4.322-4.819-2.767-2.047-6.055-3.129-9.507-3.129-0.965 0-1.935 0.087-2.881 0.259-2.683 0.488-5.215 1.669-7.323 3.417-3.099 2.568-5.104 6.169-5.646 10.137-0.099 0.725-0.149 1.46-0.149 2.186 0 2.849 0.758 5.645 2.192 8.088 1.387 2.362 3.37 4.343 5.734 5.727 0 0 0 0 0.001 0 1.342 0.785 2.786 1.369 4.295 1.734 1.233 0.299 2.505 0.45 3.779 0.45 3.094 0 6.097-0.885 8.683-2.559 2.526-1.635 4.535-3.937 5.81-6.655 1-2.133 1.507-4.416 1.507-6.786 0-1.278-0.152-2.553-0.453-3.79zM25.759 5.052c0.799 0.701 1.515 1.482 2.141 2.336l-1.26-0.313c-0.404-0.1-0.819 0.006-1.139 0.291s-0.495 0.706-0.481 1.155c0.001 0.018-0.008 0.036-0.022 0.047l-0.926 0.654c-0.016 0.011-0.035 0.012-0.052 0.002l-1.304-0.803c-0.116-0.072-0.176-0.22-0.145-0.36l0.293-1.355c0.031-0.145 0.15-0.249 0.287-0.253l1.105-0.033c0.741-0.022 1.358-0.608 1.502-1.366zM7.92 26.692l-0.186 1.407c-4.006-2.708-6.458-7.261-6.458-12.099 0-0.428 0.019-0.86 0.057-1.29l0.853 0.149c0.215 0.038 0.434 0.057 0.652 0.057h0.432c0.599 0 1.194 0.213 1.675 0.599l0.655 0.525c0.056 0.045 0.093 0.114 0.1 0.189l0.089 0.888c0.014 0.144-0.078 0.274-0.21 0.297-0.744 0.129-1.297 0.841-1.284 1.656l0.047 3.127c0.005 0.355 0.113 0.692 0.313 0.975l1.039 1.473c0.49 0.695 1.153 1.213 1.917 1.498 0.212 0.079 0.342 0.31 0.31 0.55zM12.026 30.081c-1.078-0.299-2.118-0.721-3.101-1.257l0.257-1.937c0.118-0.893-0.368-1.755-1.157-2.050-0.526-0.196-0.982-0.553-1.319-1.031l-1.039-1.473c-0.033-0.046-0.051-0.102-0.051-0.16l-0.047-3.127c-0.002-0.134 0.089-0.251 0.211-0.272 0.803-0.139 1.363-0.933 1.276-1.807l-0.089-0.888c-0.046-0.456-0.267-0.875-0.608-1.149l-0.655-0.525c-0.699-0.561-1.564-0.87-2.434-0.87h-0.432c-0.15 0-0.301-0.013-0.449-0.039l-0.871-0.152c0.618-3.347 2.395-6.371 5.053-8.574 1.873-1.553 4.112-2.621 6.491-3.1 0.361 0.325 0.64 0.741 0.814 1.218l0.036 0.099c0.091 0.247 0.151 0.507 0.179 0.771l0.032 0.301c0.057 0.535-0.019 1.079-0.219 1.572l-0.347 0.854c-0.227 0.559-0.599 1.027-1.077 1.352l-0.432 0.294c-0.438 0.298-0.693 0.83-0.668 1.389l0.058 1.262c0.003 0.064-0.025 0.107-0.049 0.132s-0.064 0.052-0.124 0.046c-0.053-0.005-0.099-0.039-0.124-0.089l-0.53-1.066c-0.184-0.369-0.503-0.645-0.876-0.758l-1.875-0.566c-0.493-0.149-1.021-0.105-1.486 0.124l-0.446 0.22c-0.939 0.462-1.453 1.587-1.221 2.674 0.092 0.431 0.293 0.824 0.582 1.136l1.218 1.318c0.069 0.074 0.135 0.153 0.196 0.235l0.835 1.114c0.369 0.492 0.915 0.774 1.501 0.774 0.002 0 0.004 0 0.006 0l2.275-0.007c0.001 0 0.001 0 0.002 0 0.233 0 0.45 0.135 0.568 0.353 0.273 0.507 0.734 0.868 1.264 0.991l0.852 0.198c0.187 0.044 0.348 0.173 0.439 0.355l0.412 0.817c0.165 0.327 0.415 0.59 0.722 0.759l1.935 1.064c0.159 0.087 0.251 0.275 0.229 0.467-0.013 0.111-0.063 0.213-0.14 0.287l-0.735 0.703c-0.207 0.198-0.368 0.451-0.465 0.732l-0.16 0.462c-0.049 0.141-0.15 0.255-0.279 0.312l-0.783 0.351c-0.667 0.299-1.098 0.997-1.098 1.778 0 0.088-0.020 0.175-0.058 0.253l-2.001 4.129zM16 30.621c-0.899 0-1.797-0.081-2.678-0.242l1.835-3.786c0.133-0.275 0.203-0.584 0.203-0.894 0-0.221 0.122-0.419 0.311-0.504l0.783-0.351c0.453-0.203 0.812-0.605 0.984-1.102l0.16-0.462c0.024-0.070 0.064-0.133 0.116-0.183l0.735-0.703c0.31-0.297 0.509-0.705 0.56-1.149 0.089-0.767-0.28-1.517-0.916-1.867l-1.935-1.064c-0.077-0.042-0.139-0.108-0.18-0.19l-0.412-0.817c-0.27-0.535-0.74-0.915-1.291-1.043l-0.852-0.198c-0.18-0.042-0.337-0.165-0.43-0.337-0.345-0.64-0.984-1.037-1.669-1.037-0.002 0-0.004 0-0.006 0l-2.275 0.007c-0.001 0-0.001 0-0.002 0-0.199 0-0.385-0.096-0.511-0.263l-0.835-1.114c-0.089-0.119-0.185-0.234-0.285-0.342l-1.218-1.318c-0.12-0.129-0.203-0.292-0.241-0.471-0.096-0.451 0.117-0.917 0.506-1.108l0.446-0.22c0.193-0.095 0.412-0.113 0.616-0.052l1.875 0.566c0.041 0.012 0.076 0.043 0.096 0.083l0.53 1.066c0.227 0.457 0.648 0.759 1.126 0.808 0.414 0.043 0.825-0.111 1.126-0.423s0.462-0.748 0.441-1.198l-0.058-1.262c-0.003-0.062 0.025-0.12 0.074-0.153l0.432-0.294c0.694-0.473 1.235-1.152 1.565-1.965l0.347-0.854c0.291-0.717 0.401-1.507 0.318-2.285l-0.032-0.301c-0.041-0.384-0.129-0.761-0.26-1.121l-0.036-0.099c-0.122-0.334-0.28-0.647-0.47-0.935h0.001c0.468-0.044 0.938-0.066 1.407-0.066 3.080 0 6.016 0.929 8.512 2.69l0.005 0.639c0.001 0.178-0.131 0.326-0.295 0.331l-1.105 0.033c-0.716 0.021-1.33 0.563-1.493 1.318l-0.293 1.355c-0.158 0.731 0.152 1.502 0.756 1.874l1.304 0.803c0.205 0.126 0.43 0.189 0.656 0.189 0.252 0 0.503-0.078 0.724-0.234l0.926-0.654c0.386-0.273 0.615-0.751 0.599-1.249-0-0.007-0.001-0.026 0.018-0.043s0.036-0.012 0.043-0.011l1.43 0.355c0.035 0.009 0.072 0.016 0.108 0.022l1.011 0.157c0.44 0.792 0.803 1.62 1.087 2.477l-0.987-0.258c-0.039-0.010-0.080-0.019-0.12-0.026l-1.078-0.188c-1.171-0.204-2.361 0.226-3.184 1.151l-0.162 0.183c-0.481 0.541-0.806 1.217-0.941 1.953l-0.411 2.248c-0.143 0.784-0.064 1.585 0.23 2.318 0.513 1.279 1.628 2.172 2.908 2.331l0.2 0.025c0.548 0.068 1.111-0.003 1.63-0.204l0.68-0.264c0.121-0.047 0.257-0.006 0.338 0.103l0.089 0.119c0.042 0.056 0.066 0.126 0.068 0.197l0.032 1.199c-2.441 5.050-7.636 8.305-13.282 8.305zM30.159 20.032l-0.074-0.099c-0.305-0.408-0.761-0.633-1.228-0.633-0.178 0-0.357 0.032-0.531 0.1l-0.68 0.263c-0.336 0.13-0.701 0.176-1.056 0.132l-0.2-0.025c-0.829-0.102-1.551-0.681-1.883-1.509-0.19-0.475-0.242-0.994-0.149-1.501l0.411-2.248c0.087-0.477 0.298-0.914 0.61-1.265l0.162-0.183c0.533-0.599 1.304-0.878 2.062-0.746l1.078 0.188c0.008 0.001 0.015 0.003 0.023 0.005l1.702 0.445c0.213 0.997 0.321 2.019 0.321 3.043 0 1.381-0.19 2.73-0.566 4.032z"></path>
</symbol>
<symbol id="icon-handshake" viewBox="0 0 32 32">
<path stroke-linejoin="round" stroke-linecap="round" stroke-miterlimit="4" stroke-width="1.4222" d="M14.667 22.667l2.667 2.667c0.263 0.263 0.574 0.471 0.918 0.613s0.711 0.215 1.082 0.215c0.371 0 0.739-0.073 1.082-0.215s0.655-0.351 0.918-0.613c0.263-0.263 0.471-0.574 0.613-0.918s0.215-0.711 0.215-1.082c0-0.371-0.073-0.739-0.215-1.082s-0.351-0.655-0.613-0.918"></path>
<path stroke-linejoin="round" stroke-linecap="round" stroke-miterlimit="4" stroke-width="1.4222" d="M18.667 18.667l3.333 3.333c0.53 0.53 1.25 0.828 2 0.828s1.47-0.298 2-0.828c0.53-0.53 0.828-1.25 0.828-2s-0.298-1.47-0.828-2l-5.173-5.173c-0.75-0.749-1.767-1.17-2.827-1.17s-2.077 0.421-2.827 1.17l-1.173 1.173c-0.53 0.53-1.25 0.828-2 0.828s-1.47-0.298-2-0.828c-0.53-0.53-0.828-1.25-0.828-2s0.298-1.47 0.828-2l3.747-3.747c1.216-1.213 2.803-1.986 4.508-2.196s3.431 0.154 4.906 1.036l0.627 0.373c0.568 0.343 1.243 0.462 1.893 0.333l2.32-0.467"></path>
<path stroke-linejoin="round" stroke-linecap="round" stroke-miterlimit="4" stroke-width="1.4222" d="M28 4l1.333 14.667h-2.667M4 4l-1.333 14.667 8.667 8.667c0.53 0.53 1.25 0.828 2 0.828s1.47-0.298 2-0.828c0.53-0.53 0.828-1.25 0.828-2s-0.298-1.47-0.828-2M4 5.333h10.667"></path>
</symbol>
<symbol id="icon-menu" viewBox="0 0 124 32">
<path fill="none" stroke="#fff" style="stroke: var(--color1, #fff)" stroke-linejoin="miter" stroke-linecap="round" stroke-miterlimit="4" stroke-width="5.1911" d="M4 3.022h116"></path>
<path fill="none" stroke="#fff" style="stroke: var(--color1, #fff)" stroke-linejoin="miter" stroke-linecap="round" stroke-miterlimit="4" stroke-width="5.1911" d="M4 28.978h116"></path>
</symbol>
</defs>
</svg>
