<svg width="20" height="21" viewBox="0 0 20 21" fill="none" xmlns="http://www.w3.org/2000/svg">
<path d="M13.8333 5.1459C13.2637 4.49558 12.9498 3.66043 12.95 2.7959H10.375V13.1292C10.3551 13.6884 10.1191 14.2181 9.71648 14.6067C9.31389 14.9953 8.77621 15.2125 8.21667 15.2126C7.03334 15.2126 6.05001 14.2459 6.05001 13.0459C6.05001 11.6126 7.43334 10.5376 8.85834 10.9792V8.3459C5.98334 7.96256 3.46667 10.1959 3.46667 13.0459C3.46667 15.8209 5.76668 17.7959 8.20834 17.7959C10.825 17.7959 12.95 15.6709 12.95 13.0459V7.80423C13.9942 8.55411 15.2478 8.95644 16.5333 8.95423V6.37923C16.5333 6.37923 14.9667 6.45423 13.8333 5.1459Z" fill="#181818"/>
</svg>
