<svg width="33" height="32" viewBox="0 0 33 32" fill="none" xmlns="http://www.w3.org/2000/svg">
<rect width="33" height="32" fill="transparent"/>
<g id="admin -1280">
<path d="M-3980 -4259C-3980 -4260.1 -3979.1 -4261 -3978 -4261H4469C4470.1 -4261 4471 -4260.1 4471 -4259V7634C4471 7635.1 4470.1 7636 4469 7636H-3978C-3979.1 7636 -3980 7635.1 -3980 7634V-4259Z" fill="transparent"/>
<path d="M-3978 -4260H4469V-4262H-3978V-4260ZM4470 -4259V7634H4472V-4259H4470ZM4469 7635H-3978V7637H4469V7635ZM-3979 7634V-4259H-3981V7634H-3979ZM-3978 7635C-3978.55 7635 -3979 7634.55 -3979 7634H-3981C-3981 7635.66 -3979.66 7637 -3978 7637V7635ZM4470 7634C4470 7634.55 4469.55 7635 4469 7635V7637C4470.66 7637 4472 7635.66 4472 7634H4470ZM4469 -4260C4469.55 -4260 4470 -4259.55 4470 -4259H4472C4472 -4260.66 4470.66 -4262 4469 -4262V-4260ZM-3978 -4262C-3979.66 -4262 -3981 -4260.66 -3981 -4259H-3979C-3979 -4259.55 -3978.55 -4260 -3978 -4260V-4262Z" fill="transparent"/>
<g id="&#208;&#146;&#209;&#150;&#208;&#180;&#208;&#181;&#208;&#190; &#208;&#191;&#209;&#128;&#208;&#190; &#208;&#188;&#208;&#181;&#208;&#189;&#208;&#181;">
<path d="M-3549 -609H1186V620H-3549V-609Z" fill="transparent"/>
<path d="M-3549 -609V-629H-3569V-609H-3549ZM1186 -609H1206V-629H1186V-609ZM1186 620V640H1206V620H1186ZM-3549 620H-3569V640H-3549V620ZM-3549 -589H1186V-629H-3549V-589ZM1166 -609V620H1206V-609H1166ZM1186 600H-3549V640H1186V600ZM-3529 620V-609H-3569V620H-3529Z" fill="#919299"/>
<g id="Services">
<rect width="1280" height="643" transform="translate(-731 -297)" fill="white"/>
<g id="rightContent">
<g id="Frame 1000005087">
<g id="File Upload">
<rect x="-496" y="-193" width="1025" height="463" rx="8" fill="#F5F6F6"/>
<rect x="-496" y="-193" width="1025" height="463" rx="8" stroke="#D2CFD0" stroke-width="2" stroke-linecap="round" stroke-dasharray="5 5"/>
<g id="Drop files to upload">
<g id="upload">
<g id="Group 215">
<path id="Vector" d="M31.5 21V27.6667C31.5 28.5507 31.1488 29.3986 30.5237 30.0237C29.8986 30.6488 29.0507 31 28.1667 31H4.83333C3.94928 31 3.10143 30.6488 2.47631 30.0237C1.85119 29.3986 1.5 28.5507 1.5 27.6667V21" stroke="currentColor" stroke-width="1.5" stroke-linecap="round" stroke-linejoin="round"/>
<path id="Vector_2" d="M24.8332 9.33333L16.4998 1L8.1665 9.33333" stroke="currentColor" stroke-width="1.5" stroke-linecap="round" stroke-linejoin="round"/>
<path id="Vector_3" d="M16.5 1V21" stroke="currentColor" stroke-width="1.5" stroke-linecap="round" stroke-linejoin="round"/>
</g>
</g>
</g>
</g>
</g>
</g>
</g>
</g>
</g>
</svg>
