<svg width="15" height="11" viewBox="0 0 15 11" fill="none" xmlns="http://www.w3.org/2000/svg">
<path d="M14.0872 2.0125C14.013 1.71588 13.8618 1.44411 13.6489 1.22463C13.436 1.00515 13.169 0.84574 12.8747 0.7625C11.7997 0.5 7.49975 0.5 7.49975 0.5C7.49975 0.5 3.19975 0.5 2.12475 0.7875C1.83053 0.87074 1.56348 1.03015 1.35059 1.24963C1.13769 1.46911 0.98649 1.74088 0.912247 2.0375C0.715506 3.12847 0.619269 4.23519 0.624747 5.34375C0.617734 6.46065 0.713977 7.57581 0.912247 8.675C0.994096 8.9624 1.14869 9.22384 1.36109 9.43405C1.57349 9.64426 1.83651 9.79613 2.12475 9.875C3.19975 10.1625 7.49975 10.1625 7.49975 10.1625C7.49975 10.1625 11.7997 10.1625 12.8747 9.875C13.169 9.79176 13.436 9.63235 13.6489 9.41287C13.8618 9.19339 14.013 8.92162 14.0872 8.625C14.2825 7.54224 14.3787 6.44396 14.3747 5.34375C14.3818 4.22685 14.2855 3.11169 14.0872 2.0125Z" stroke="currentColor" stroke-linecap="round" stroke-linejoin="round"/>
<path d="M6.09375 7.38755L9.6875 5.3438L6.09375 3.30005V7.38755Z" stroke="currentColor" stroke-linecap="round" stroke-linejoin="round"/>
</svg>
